<?xml version="1.0" encoding="UTF-8"?>
<svg version="1.1" viewBox="0 0 50 50" xmlns="http://www.w3.org/2000/svg">
  <title>Bishop</title>
  <g fill="#fff" fill-rule="evenodd" stroke="#000">
    <path d="m6.1426 49.005h37.715l-6.3481-45.745-12.51-2.2497-12.51 2.2497-6.3475 45.745z" stroke-width="2"/>
    <g stroke-linejoin="round" stroke-width="1.2552">
      <path d="m13.65 39.032c2.85-0.80795 8.4997 0.35816 11.35-1.6659 2.85 2.024 8.4997 0.85793 11.35 1.6659 0 0 1.3872 0.44979 2.5222 1.6659-0.57169 0.80795-1.3872 0.82461-2.5222 0.41647-2.85-0.80795-8.4997 0.38315-11.35-0.83294-2.85 1.2161-8.4997 0.02499-11.35 0.83294-1.1383 0.40814-1.953 0.39148-2.5222-0.41647 1.1383-1.6159 2.5222-1.6659 2.5222-1.6659z"/>
      <path d="m18.695 35.7c2.1018 2.0824 10.509 2.0824 12.611 0 0.42036-1.2494 0-1.6659 0-1.6659 0-2.0824-2.1018-3.3318-2.1018-3.3318 4.624-1.2494 5.0443-9.5788-4.2036-12.911-9.2479 3.3318-8.8276 11.661-4.2036 12.911 0 0-2.1018 1.2494-2.1018 3.3318 0 0-0.42036 0.41647 0 1.6659z"/>
      <path d="m27.102 15.71a2.1018 2.0824 0 1 1-4.2036 0 2.1018 2.0824 0 1 1 4.2036 0z"/>
    </g>
  </g>
  <path d="m20.796 30.702h8.4072m-10.509 3.3318h12.611m-6.3054-12.078v4.1647m-2.1018-2.0824h4.2036" fill="none" stroke="#000" stroke-linecap="round" stroke-width="1.2552"/>
</svg>
