<?xml version="1.0" encoding="UTF-8"?>
<svg version="1.1" viewBox="0 0 50 50" xmlns="http://www.w3.org/2000/svg">
  <title>Knight</title>
  <g fill="#fff" fill-rule="evenodd" stroke="#000">
    <path d="m6.1426 49.005h37.715l-6.3481-45.745-12.51-2.2497-12.51 2.2497-6.3475 45.745z" stroke-width="2"/>
    <path d="m24.987 16.245c9.0816 0.86567 14.271 6.9254 13.839 25.104h-19.893c0-7.791 8.6491-5.6269 6.9193-18.179" stroke-linecap="round" stroke-linejoin="round" stroke-width="1.2979"/>
    <path d="m26.717 23.171c0.32867 2.5191-4.8003 6.38-6.9193 7.791-2.5947 1.7313-2.439 3.757-4.3246 3.4627-0.90124-0.81373 1.2195-2.6316 0-2.597-0.86491 0 0.16433 1.0648-0.86491 1.7313-0.86491 0-3.4622 0.86567-3.4596-3.4627 0-1.7313 5.1895-10.388 5.1895-10.388s1.6347-1.6448 1.7298-3.0298c-0.63138-0.86048-0.43246-1.7313-0.43246-2.597 0.86491-0.86567 2.5947 2.1642 2.5947 2.1642h1.7298s0.67463-1.7244 2.1623-2.597c0.86491 0 0.86491 2.597 0.86491 2.597" stroke-linecap="round" stroke-linejoin="round" stroke-width="1.2979"/>
  </g>
  <path d="m14.176 29.663a0.43246 0.43284 0 0 1-0.86491 0 0.43246 0.43284 0 1 1 0.86491 0z" fill-rule="evenodd" stroke="#000" stroke-linecap="round" stroke-linejoin="round" stroke-width="1.2979"/>
  <path d="m18.875 21.223a0.43254 1.2982 29.974 0 1-0.74901-0.43283 0.43254 1.2982 29.974 0 1 0.74901 0.43283z" fill-rule="evenodd" stroke="#000" stroke-linecap="round" stroke-linejoin="round" stroke-width="1.2979"/>
</svg>
