<?xml version="1.0" encoding="UTF-8"?>
<svg version="1.1" viewBox="0 0 4096 4096" xmlns="http://www.w3.org/2000/svg">
  <title>Ogi Sente Knight</title>

  <g transform="rotate(180 2048 2048)">
    <polygon points="2048 479 3231 1034 3570 3964 526 3964 865 1034" fill="#fff" stroke="#000" stroke-linejoin="round" stroke-width="148"/>
    <path d="m1592.9 1854.4q18.091 27.832 13.916 58.447-13.916 89.062-98.804 75.146-25.049-4.1748-40.356-16.699-5.5664 6.958-16.699 30.615-15.308 44.531-58.447 30.615-43.14-16.699-33.398-62.622 62.622-160.03 226.83-219.87 47.314-13.916 62.622 27.832 16.699 44.531-25.049 61.23-8.3496 4.1748-15.308 8.3496-6.958 2.7832-15.308 6.958zm-413.31 663.79q-40.356 25.049-48.706 66.797 1.3916 45.923-43.14 50.098-48.706 5.5664-50.098-41.748 5.5664-91.846 82.104-146.12 36.182-29.224 66.797 5.5664 30.615 37.573-6.958 65.405zm944.9-1134.2q218.48 13.916 404.96 112.72 186.47 98.804 317.29 253.27 91.846 108.54 172.56 261.62 82.104 153.08 130.81 324.24 55.664 199 69.58 418.87 15.308 218.48 15.308 404.96v303.37t-217.09 0q-215.7 0-560.82 0h-933.76q-12.524 0-12.524-68.188 1.3916-68.188 9.7412-109.94 5.5664-33.398 26.44-94.629 20.874-61.23 69.58-148.9 22.266-44.531 105.76-129.42 83.496-86.279 192.04-199 62.622-64.014 97.412-161.43 36.182-97.412 30.615-176.73-51.489 41.748-112.72 68.188-295.02 105.76-427.22 306.15-9.7412 12.524-62.622 112.72-27.832 52.881-47.314 72.363-26.44 26.44-76.538 29.224-77.93 4.1748-121.07-75.146-58.447 16.699-104.37 13.916-77.93-29.224-112.72-62.622-70.972-70.972-93.237-141.94-20.874-70.972-20.874-153.08 0-116.89 144.73-308.94 169.78-221.26 180.91-336.77 0-50.098 9.7412-112.72 8.3497-43.14 34.79-83.496 18.091-27.832 23.657-37.573 6.958-11.133 23.657-32.007 12.524-16.699 20.874-25.049 8.3496-9.7413 20.874-25.049 15.308-18.091 38.965-41.748-73.755-203.17-59.839-418.87 276.93 98.804 464.79 310.33 45.923-157.25 180.91-254.66 111.33 77.93 176.73 205.96zm942.11 1980.2q-1.3916 0 2.7832-76.538 4.1749-75.146 4.1749-162.82 1.3916-173.95 0-359.03-1.3916-186.47-50.098-371.56-47.314-178.12-104.37-303.37-57.056-126.64-123.85-218.48-100.2-150.29-272.75-254.66-172.56-104.37-360.42-136.38 12.524 68.188 11.133 133.59-2.7832 50.098-47.314 50.098-51.489 0-45.923-50.098 4.1748-183.69-130.81-314.5-105.76 111.33-114.11 258.84-2.7832 48.706-50.098 43.14-44.531-1.3916-44.531-51.489 0 0 2.7832-11.133-57.056 18.091-119.68 51.489-40.356 27.832-65.405-13.916-25.049-41.748 22.266-65.405 59.839-30.615 90.454-45.923-119.68-122.46-272.75-197.61 16.699 193.43 105.76 365.99 23.657 36.182-11.133 64.014-38.965 30.615-65.405-9.7413-9.7412-13.916-27.832-50.098-29.224 29.224-38.965 43.14-9.7412 12.524-34.79 55.664-23.657 43.14-34.79 70.972-12.524 34.79-11.133 57.056 2.7832 20.874 4.1748 47.314-12.524 82.104-57.056 154.47-43.14 72.363-111.33 176.73-65.405 100.2-100.2 150.29-34.79 50.098-52.881 128.03-12.524 47.314 0 115.5 12.524 66.797 54.272 104.37 64.014 65.405 123.85 59.839 19.482 0 51.489-15.308 33.398-15.308 51.489-58.447 36.182-79.321 59.839-79.321 34.79 0 37.573 38.965 0 8.3496-22.266 69.58-12.524 27.832-33.398 58.447-26.44 36.182-23.657 30.615 22.266 79.321 73.755 27.832 15.308-15.308 34.79-57.056 19.482-41.748 61.23-112.72 48.706-82.104 104.37-133.59 55.664-51.489 98.804-83.496 25.049-18.091 61.23-41.748t97.412-48.706q48.706-19.482 107.15-47.314 59.839-29.224 105.76-73.755 64.014-62.622 98.804-154.47 18.091-51.489 13.916-126.64-12.524-47.314 47.314-47.314 44.531 0 50.098 45.923 0 157.25-89.062 286.67 29.224 89.062 15.308 194.82-12.524 84.888-59.839 182.3-45.923 96.02-187.87 214.31-288.06 239.36-272.75 492.63 0 0 236.57 0 237.96 0 446.7 0z" dominant-baseline="central" aria-label="♘"/>
  </g>
</svg>
