<?xml version="1.0" encoding="UTF-8"?>
<svg version="1.1" viewBox="0 0 4096 4096" xmlns="http://www.w3.org/2000/svg">
  <title>Ogi Sente Princess</title>

  <g transform="rotate(180 2048 2048)">
    <polygon points="2048 134 3348 744 3720 3964 376 3964 748 744" fill="#fff" stroke="#000" stroke-linejoin="round" stroke-width="148"/>

    <g transform="translate(-4354.6 136.17)">
      <ellipse cx="6468.1" cy="1707.9" rx="352.73" ry="312.63" fill="#fff"/><ellipse cx="6460.7" cy="2123.6" rx="182.51" ry="815.95" fill="#fff"/><ellipse cx="6585.9" cy="2711.3" rx="524.6" ry="245.52" fill="#fff"/><ellipse cx="6468.1" cy="2877.4" rx="456.67" ry="103.94" fill="#fff"/><ellipse cx="6306.9" cy="3202.3" rx="117.85" ry="107.21" fill="#fff"/><ellipse cx="6632.6" cy="3201.5" rx="117.85" ry="107.21" fill="#fff"/><ellipse cx="6106.4" cy="1241.4" rx="145.68" ry="239.79" fill="#fff"/><ellipse cx="5863.3" cy="1697.3" rx="487.77" ry="473.86" fill="#fff"/><ellipse cx="6369.1" cy="1533.6" rx="485.32" ry="327.36" fill="#fff"/><ellipse cx="5504" cy="2015.6" rx="269.26" ry="260.25" fill="#fff"/><ellipse cx="5305.1" cy="2293.1" rx="239.79" ry="292.17" fill="#fff"/><ellipse cx="7083.5" cy="2598.3" rx="147.31" ry="94.12" fill="#fff"/><ellipse cx="6341.2" cy="2327.4" rx="147.31" ry="183.32" fill="#fff"/><circle cx="5474.5" cy="2597.5" r="76.11" fill="#fff"/><rect x="6293.8" y="2798.8" width="349.46" height="376.47" ry="90.84" fill="#fff"/><rect x="5255.2" y="3181.9" width="242.25" height="215.24" ry="107.21" fill="#fff"/><rect x="5329.7" y="3181.9" width="967.36" height="215.24" ry="90.84" fill="#fff"/><rect x="6635.9" y="3175.3" width="980.46" height="215.24" ry="90.84" fill="#fff"/><rect x="7446.1" y="3188.4" width="228.34" height="215.24" ry="107.21" fill="#fff"/><rect x="6799.5" y="1468.1" width="124.4" height="1023" ry="40.1" fill="#fff"/><rect x="6571.2" y="1789.7" width="260.25" height="682.55" ry="40.1" fill="#fff"/><rect x="6885.5" y="1558.9" width="150.59" height="946.08" ry="40.1" fill="#fff"/><rect x="6990.2" y="1707.9" width="149.77" height="790.58" ry="40.1" fill="#fff"/><rect x="7081.1" y="1942" width="148.13" height="554.88" ry="40.1" fill="#fff"/><rect x="7176.8" y="2215.3" width="124.4" height="280.71" ry="40.1" fill="#fff"/><path d="m5785.4 1118.9a241.43 135.86 53.294 0 1-217.83 162.41 241.43 135.86 53.294 0 1 217.83-162.41z" fill="#fff"/><path d="m5329.3 2425.6 577.85-864.93a79.39 79.39 0 0 1 110.11-21.9l101.4 67.74a79.39 79.39 0 0 1 21.91 110.11l-577.86 864.92a79.39 79.39 0 0 1-110.11 21.91l-101.4-67.74a79.39 79.39 0 0 1-21.9-110.11z" fill="#fff"/><ellipse transform="matrix(.7634 -.64592 .84571 .53364 0 0)" cx="1332.9" cy="5703.9" rx="116.88" ry="87.353" fill="#fff" style="paint-order:markers stroke fill"/><path d="m5466 873.16c-9.28 143.76 10.66 283.35 59.82 418.77-15.77 15.77-28.75 29.68-38.96 41.74-8.35 10.2-15.3 18.55-20.87 25.04-5.57 5.56-12.52 13.91-20.87 25.04-11.13 13.91-19.01 24.58-23.65 32-3.71 6.49-11.59 19.01-23.65 37.57-17.62 26.9-29.22 54.72-34.78 83.48-6.49 41.73-9.74 79.3-9.74 112.69-7.42 76.99-67.72 189.22-180.87 336.69-96.46 128-144.69 230.95-144.69 308.86 0 54.72 6.96 105.73 20.87 153.03 14.84 47.3 45.91 94.61 93.22 141.91 23.18 22.26 60.74 43.13 112.69 62.61 30.6 1.86 65.38-2.78 104.34-13.91 28.75 52.87 69.1 77.91 121.04 75.13 33.39-1.86 58.9-11.59 76.52-29.22 12.99-12.98 28.75-37.1 47.3-72.34 35.25-66.78 56.12-104.34 62.61-112.69 88.12-133.56 230.49-235.6 427.12-306.09 40.81-17.62 78.37-40.35 112.69-68.17 3.71 52.87-6.49 111.77-30.61 176.69-23.19 64.92-48.18 141.75-87.53 232.19l0.26-0.01-0.26 0.01-166.24 412.4c44.76 17.05 96.44 33.57 155.05 49.55 58.61 14.92 116.16 25.58 172.64 31.97-25.58 33.04-51.15 58.08-76.73 75.13s-44.22 28.77-55.95 35.17c-22.38 12.79-65.53 19.18-129.47 19.18-58.61-8.53-117.22-16.52-175.83-23.98-57.54-8.53-115.09-17.58-172.64-27.17-30.91 3.2-60.75 4.26-89.52 3.2s-58.08-0.53-87.91 1.6c-70.33 6.39-136.4 23.98-198.21 52.75-20.25 9.59-37.83 18.65-52.75 27.17s-31.97 23.44-51.15 44.76l155.05 254.16c19.18-19.18 45.82-34.1 79.92-44.76 35.17-9.59 63.94-14.39 86.32-14.39 12.79 0 26.11-1.07 39.96-3.2 14.92-2.13 31.44-2.13 49.55 0l449.17 62.34c63.93 9.59 122.02 4.79 174.23-14.39 52.22-18.12 97.51-40.49 135.87-67.13 35.17-25.58 63.41-50.09 84.72-73.53 21.29-23.42 39.38-65.46 54.29-126.08 13.85 60.74 30.9 101.23 51.15 121.48 21.32 21.31 49.56 46.36 84.72 75.13 35.17 29.84 79.92 53.82 134.27 71.93 55.41 18.12 115.08 22.38 179.03 12.79l447.57-62.34c18.12-2.13 34.1-2.13 47.96 0 14.92 2.13 29.3 3.2 43.16 3.2 21.31 0 49.02 4.79 83.12 14.38 35.17 10.66 62.34 25.58 81.52 44.76l156.65-254.16c-19.18-21.31-36.76-36.23-52.75-44.76-14.92-8.53-31.97-17.58-51.15-27.17-63.94-28.77-130.01-46.35-198.21-52.75-30.9-2.13-61.28-2.66-91.11-1.6-28.77 1.07-57.55 0-86.32-3.2-58.61 9.59-117.22 18.65-175.83 27.17-57.54 7.46-115.09 15.45-172.64 23.98-63.94 0-107.1-6.39-129.47-19.18-12.79-6.39-31.97-18.12-57.54-35.17s-50.62-42.09-75.13-75.13c54.35-6.39 110.83-17.05 169.44-31.97 58.61-15.98 111.36-32.5 158.25-49.55l367.99-441.24h-0.17c0.09-0.07 0.2-0.11 0.17-0.24h0.02c-9.28-146.54-32.46-286.13-69.56-418.77-32.46-114.09-76.05-222.14-130.77-324.16-53.79-102.03-111.3-189.22-172.52-261.56-87.19-102.96-192.92-187.37-317.21-253.22-124.28-65.85-259.24-103.41-404.86-112.69l0.08-0.19c-43.6-85.33-102.5-153.96-176.69-205.9-89.97 64.92-150.26 149.79-180.87 254.6-125.22-140.99-280.11-244.41-464.69-310.26zm95.98 146.32c102.02 50.08 192.92 115.94 272.69 197.56-20.41 10.2-50.55 25.51-90.43 45.91-31.54 15.77-38.96 37.57-22.26 65.39 16.69 27.83 38.49 32.46 65.39 13.91 41.74-22.26 81.62-39.42 119.65-51.48l-2.78 11.13c0 33.39 14.84 50.55 44.52 51.48 31.53 3.71 48.23-10.66 50.08-43.13 5.57-98.32 43.6-184.58 114.09-258.77 89.96 87.19 133.56 192 130.77 314.43-3.71 33.39 11.59 50.08 45.91 50.08 29.68 0 45.45-16.69 47.3-50.08 0.93-43.6-2.78-88.12-11.13-133.56 125.21 21.34 245.33 66.79 360.34 136.35s205.91 154.43 272.69 254.6c44.52 61.22 85.79 134.02 123.83 218.43 38.02 83.48 72.8 184.58 104.34 303.29 32.46 123.35 58.39 216.34 77.47 334.21l-1017.9-71.25c31.53-64.93 51.48-125.68 59.82-182.26 9.28-70.5 4.17-135.42-15.3-194.78 59.36-86.26 89.04-181.79 89.04-286.6-3.71-30.61-20.41-45.91-50.09-45.91-39.88 0-55.65 15.77-47.3 47.3 2.78 50.08-1.86 92.28-13.91 126.6-23.19 61.22-56.12 112.7-98.78 154.43-30.61 29.68-65.86 54.26-105.74 73.74-38.96 18.55-74.67 34.32-107.13 47.3-40.81 16.69-73.28 32.93-97.39 48.69-24.12 15.77-44.52 29.68-61.22 41.74-28.76 21.33-61.69 49.15-98.78 83.48-37.1 34.32-71.88 78.84-104.34 133.56-27.83 47.3-48.23 84.86-61.22 112.69-12.98 27.83-24.58 46.84-34.78 57.04-34.32 34.32-58.9 25.04-73.74-27.83-1.86 3.71 6.03-6.49 23.65-30.61 13.91-20.41 25.04-39.88 33.39-58.43 14.84-40.81 22.26-64 22.26-69.56-1.86-25.97-14.38-38.96-37.56-38.96-15.77 0-35.71 26.43-59.82 79.3-12.06 28.75-29.22 48.23-51.48 58.43-21.33 10.2-38.49 15.3-51.48 15.3-39.88 3.71-81.16-16.23-123.83-59.82-27.83-25.04-45.91-59.82-54.26-104.34-8.35-45.45-8.35-83.94 0-115.48 12.06-51.94 29.68-94.61 52.87-128 23.18-33.39 56.57-83.48 100.17-150.26 45.45-69.56 82.55-128.47 111.3-176.69 29.68-48.24 48.69-99.72 57.04-154.43-0.93-17.62-2.32-33.39-4.17-47.3-0.93-14.84 2.78-33.85 11.13-57.04 7.42-18.55 19.01-42.2 34.78-70.96 16.69-28.75 28.29-47.3 34.78-55.65 6.49-9.28 19.48-23.65 38.95-43.13 12.06 24.12 21.33 40.81 27.83 50.08 17.62 26.9 39.42 30.14 65.39 9.74 23.19-18.55 26.9-39.88 11.13-64-59.36-115.01-94.61-236.98-105.74-365.9zm209.4 477.89c-6.55 0-13.77 1.16-21.65 3.48-109.45 39.88-185.04 113.15-226.78 219.82-6.49 30.61 4.64 51.48 33.39 62.61 28.75 9.27 48.23-0.93 58.43-30.61 7.42-15.77 12.99-25.97 16.7-30.61 10.2 8.35 23.65 13.91 40.35 16.7 56.58 9.27 89.51-15.77 98.78-75.13 2.78-20.41-1.86-39.88-13.91-58.43l0.01 0.01c5.56-2.78 10.67-5.1 15.3-6.96 4.64-2.78 9.74-5.56 15.3-8.35 27.83-11.13 36.17-31.54 25.04-61.22-7.65-20.87-21.3-31.3-40.96-31.3zm-452.96 687.28c-11.13-0.93-22.72 3.48-34.78 13.22-51.01 36.17-78.37 84.87-82.08 146.09 0.93 31.54 17.62 45.45 50.09 41.74 29.68-2.78 44.06-19.48 43.13-50.08 5.56-27.83 21.8-50.09 48.69-66.78l-0.01-0.01c25.04-18.55 27.36-40.35 6.96-65.39-10.2-11.59-20.87-17.85-32-18.78zm1150 349.56c94.84 0 639.84 25.55 733.62 40.47l-194.68 222.93c-115.08-24.51-414.25-81.18-538.94-81.18-126.81 0-247.23 12.25-361.25 36.76l76.73-196.61c92.72-14.92 187.56-22.38 284.53-22.38zm0 294.16c149.19 0 286.12 16.52 410.8 49.55-63.94 17.05-130.54 31.97-199.81 44.76-68.2 11.72-138.53 17.58-210.99 17.58-73.53 0-144.93-5.86-214.19-17.58-69.26-12.79-134.8-27.71-196.61-44.76 122.55-33.04 259.49-49.55 410.8-49.55zm-108.69 199.76h51.15c0 70.33-16.52 130-49.55 179.02-31.97 50.09-66.07 88.99-102.3 116.69-59.67 42.63-145.46 63.94-257.35 63.94-28.78 0-83.13-5.86-163.04-17.58-67.13-10.66-120.95-18.65-161.45-23.98-40.49-4.26-67.67-7.99-81.52-11.19-40.49-5.33-83.12-4.26-127.88 3.2-17.05 4.26-36.23 7.99-57.54 11.19-20.25 4.26-36.76 12.79-49.55 25.58l-76.73-124.68c42.62-22.38 88.45-37.83 137.47-46.36 80.99-13.85 151.86-17.05 212.6-9.59 17.05 2.13 40.49 7.46 70.33 15.98s70.33 16.52 121.48 23.98c106.56 17.05 163.58 25.58 171.03 25.58 40.49 0 76.19-5.33 107.1-15.98 30.91-10.66 59.15-22.38 84.72-35.17 54.34-24.51 111.35-84.71 171.03-180.62zm164.64 0 51.15 0.01c58.61 94.84 116.16 155.05 172.64 180.62 24.51 12.79 52.21 24.51 83.12 35.17 30.9 10.66 67.13 15.98 108.69 15.98 6.39 0 63.4-8.53 171.03-25.58 50.08-7.46 89.51-15.45 118.28-23.98 29.84-8.52 53.82-13.85 71.93-15.98 60.74-7.46 131.61-4.26 212.6 9.59 49.01 8.53 95.38 23.98 139.06 46.36l-76.73 124.68c-13.85-12.79-31.44-21.31-52.75-25.58-20.25-3.2-38.9-6.93-55.95-11.19-44.76-7.46-87.38-8.53-127.88-3.2-13.85 3.2-41.03 6.93-81.52 11.19-40.49 5.33-93.77 13.32-159.84 23.98-80.99 11.72-135.34 17.58-163.04 17.58-112.96 0-198.74-21.31-257.35-63.94-37.3-27.71-72.47-66.6-105.5-116.69-31.97-49.01-47.95-108.69-47.95-179.03z"/>
    </g>
  </g>
</svg>
