<?xml version="1.0" encoding="UTF-8"?>
<svg version="1.1" viewBox="0 0 4096 4096" xmlns="http://www.w3.org/2000/svg">
  <title>Ogi Sente Promoted Silver General</title>

  <g transform="rotate(180 2048 2048)">
    <polygon points="2048 364 3270 937 3620 3964 476 3964 826 937" fill="#fff" stroke="#000" stroke-linejoin="round" stroke-width="148"/>
    <path d="m2038.9 1195.3a153.32 153.55 0 0 0-141.87 153.12 153.32 153.55 0 0 0 127.43 150.95l-72.768 593.51-485.38-379.88a153.32 153.55 0 0 0 31.689-92.838 153.32 153.55 0 1 0-306.64 0 153.32 153.55 0 0 0 246.3 121.83l377.34 483.58-613.86 75.424a153.32 153.55 0 0 0-305.12 20.447 153.32 153.55 0 0 0 305.13 20.076l736.11 90.393 90.324 736.48a153.32 153.55 0 0 0-132.95 151.78 153.32 153.55 0 0 0 306.64 0 153.32 153.55 0 0 0-133.03-151.79l90.188-736.31 736.31-90.533a153.32 153.55 0 0 0 305.13-20.164 153.32 153.55 0 0 0-304.93-22.887 153.32 153.55 0 0 0-0.1875 2.5136l-613.91-75.43 377.35-483.6a153.32 153.55 0 0 0 246.33-121.81 153.32 153.55 0 1 0-306.64 0 153.32 153.55 0 0 0 31.66 92.803l-485.55 379.92-72.607-592.78a153.32 153.55 0 0 0 132.27-151.68 153.32 153.55 0 0 0-164.78-153.12z" fill="#900" fill-rule="evenodd" stroke="#900" stroke-linecap="round" stroke-linejoin="round" stroke-width="111.74"/>
  </g>
</svg>
