<?xml version="1.0" encoding="UTF-8"?>
<svg version="1.1" viewBox="0 0 4096 4096" xmlns="http://www.w3.org/2000/svg">
  <title>Ogi Sente Promoted Rook</title>

  <g transform="rotate(180 2048 2048)">
    <polygon points="2048 249 3309 841 3670 3964 426 3964 787 841" fill="#fff" stroke="#000" stroke-linejoin="round" stroke-width="148"/>
    <path d="m2250.8 1325.3h251.6v-202.76h405.51v554.99l-328.56 253.08v707.43l251.6 251.6v303.4h226.44v353.72h-2020.2v-353.72h226.44v-303.4l253.08-251.6v-707.43l-328.56-253.08v-554.99h404.03v202.76h253.08v-202.76h405.51zm-883.55 1844.1v150.96h1361.6v-150.96zm680.79-1616.1h-757.75v68.079l108.04 81.399h1300.9l105.08-81.399v-68.079zm0 250.12h-517.99l88.799 69.559v84.359h858.39v-84.359l88.799-69.559zm0 808.07h-429.19v68.079l-88.799 85.839h1036l-88.799-85.839v-68.079zm0 254.56h-612.71l-68.079 63.639v85.839h1361.6v-85.839l-68.079-63.639z" dominant-baseline="central" fill="#900" aria-label="♜"/>
  </g>
</svg>
