<?xml version="1.0" encoding="UTF-8"?>
<svg version="1.1" viewBox="0 0 4096 4096" xmlns="http://www.w3.org/2000/svg">
  <title>Ogi Sente Promoted Pawn</title>

  <g transform="rotate(180 2048 2048)">
    <polygon points="2048 594 3192 1130 3519 3964 577 3964 904 1130" fill="#fff" stroke="#000" stroke-linejoin="round" stroke-width="148"/>
    <path d="m2048 3416.9h-727.47q-53.887-134.72-53.887-281.56 0-249.23 141.45-447.26 141.45-198.03 363.74-282.91-95.649-44.457-156.27-133.37-59.275-90.26-59.275-203.42 0-141.45 94.302-245.18 94.302-103.73 231.71-119.9-109.12-82.177-109.12-216.89 0-113.16 79.483-193.99 80.83-80.83 195.34-80.83 113.16 0 193.99 80.83 80.83 80.83 80.83 193.99 0 134.72-109.12 216.89 137.41 16.166 231.71 119.9 94.302 103.73 94.302 245.18 0 113.16-61.97 203.42-60.623 88.913-154.92 133.37 222.28 84.872 363.74 282.91 141.45 198.03 141.45 447.26 0 145.49-52.54 281.56z" dominant-baseline="central" fill="#900" aria-label="♟"/>
  </g>
</svg>
