<?xml version="1.0" encoding="UTF-8"?>
<svg version="1.1" viewBox="0 0 50 50" xmlns="http://www.w3.org/2000/svg">
  <title>Silver General</title>
  <path d="m6.1426 49.005h37.715l-6.3481-45.745-12.51-2.2497-12.51 2.2497-6.3475 45.745z" fill="#fff" fill-rule="evenodd" stroke="#000" stroke-width="2"/>
  <path d="m15.077 39.493 7.7543-10.003-7.7543-10.003 8.631 6.7967 1.322-10.869 1.3181 10.828 8.5763-6.7554-7.7562 10.003 7.7562 10.003-9.9237-7.8183z" fill-opacity="0" stroke="#0d0000" stroke-width="1.2598"/>
  <g fill="#fff" fill-rule="evenodd" stroke="#0d0000" stroke-linecap="round" stroke-linejoin="round" stroke-width="1.2598">
    <path d="m16.606 40.754a1.9657 1.9814 0 0 0-2.7799-2.8022 1.9657 1.9814 0 1 0 2.7799 2.8022z"/>
    <path d="m36.175 21.027a1.9657 1.9814 0 0 1-2.7799-2.8022 1.9657 1.9814 0 1 1 2.7799 2.8022z"/>
    <path d="m13.825 21.027a1.9657 1.9814 0 0 0 2.7799-2.8022 1.9657 1.9814 0 1 0-2.7799 2.8022z"/>
    <path d="m33.395 40.754a1.9657 1.9814 0 0 1 2.7799-2.8022 1.9657 1.9814 0 1 1-2.7799 2.8022z"/>
    <path d="m26.995 15.611a1.9657 1.9814 0 0 1-3.9314 0 1.9657 1.9814 0 1 1 3.9314 0z"/>
  </g>
</svg>
