<?xml version="1.0" encoding="UTF-8"?>
<svg version="1.1" viewBox="0 0 50 50" xmlns="http://www.w3.org/2000/svg">
  <title>全</title>
  <path d="m6.1426 49.005h37.715l-6.3481-45.745-12.51-2.2497-12.51 2.2497-6.3475 45.745z" fill="#fff" fill-rule="evenodd" stroke="#900" stroke-width="2"/>
  <g fill="#900" aria-label="全">
    <path d="m32.427 39.147h-6.2934v-5.7601h7.4668c0.37334 0 0.64001-0.13334 0.72001-0.42667-1.0667-0.90668-2.7734-2.1867-2.7734-2.1867l-1.52 1.8667h-3.8934v-5.0667h6.1334c0.34667 0 0.64001-0.13334 0.69334-0.42667-0.96001-0.88001-2.6134-2.08-2.6134-2.08l-1.44 1.7334h-11.787l0.18667 0.77334h6.1601v5.0667h-6.9868l0.21334 0.74668h6.7734v5.7601h-10.187l0.24 0.77334h22.694c0.34667 0 0.64001-0.13334 0.72001-0.42667-1.0933-0.98668-2.9067-2.3734-2.9067-2.3734zm-9.1468-23.147c-1.28 3.92-6.4801 9.6535-10.987 12.507l0.18667 0.34667c5.1467-2.32 10.693-6.7734 13.28-10.907 1.7867 4.2401 5.6001 7.6268 9.7335 9.8668 0.21334-0.98668 1.0133-2.1067 2.1867-2.4l0.02667-0.37334c-4.3201-1.5734-9.0668-3.9734-11.467-7.3868 0.77334-0.08 1.1467-0.21334 1.2267-0.56001z"/>
  </g>
</svg>
