<?xml version="1.0" encoding="UTF-8" standalone="no"?>
<svg
   version="1.1"
   viewBox="0 0 50 50"
   id="svg206"
   sodipodi:docname="promoted-lance.svg"
   inkscape:version="1.2.2 (732a01da63, 2022-12-09, custom)"
   xmlns:inkscape="http://www.inkscape.org/namespaces/inkscape"
   xmlns:sodipodi="http://sodipodi.sourceforge.net/DTD/sodipodi-0.dtd"
   xmlns="http://www.w3.org/2000/svg"
   xmlns:svg="http://www.w3.org/2000/svg"
   xmlns:rdf="http://www.w3.org/1999/02/22-rdf-syntax-ns#"
   xmlns:cc="http://creativecommons.org/ns#"
   xmlns:dc="http://purl.org/dc/elements/1.1/">
  <defs
     id="defs210" />
  <sodipodi:namedview
     id="namedview208"
     pagecolor="#ffffff"
     bordercolor="#000000"
     borderopacity="0.25"
     inkscape:showpageshadow="2"
     inkscape:pageopacity="0.0"
     inkscape:pagecheckerboard="0"
     inkscape:deskcolor="#d1d1d1"
     showgrid="false"
     inkscape:zoom="7.88"
     inkscape:cx="24.111675"
     inkscape:cy="29.695431"
     inkscape:window-width="1920"
     inkscape:window-height="935"
     inkscape:window-x="0"
     inkscape:window-y="0"
     inkscape:window-maximized="1"
     inkscape:current-layer="svg206" />
  <title
     id="title198">杏</title>
  <path
     d="m6.1426 49.005h37.715l-6.3481-45.745-12.51-2.2497-12.51 2.2497-6.3475 45.745z"
     fill="#fff"
     fill-rule="evenodd"
     stroke="#900"
     stroke-width="2"
     id="path200" />
  <path
     d="M 20.067,37.974 V 31.7606 H 30.2 v 6.2134 z m 9.8668,-6.9868 H 20.227 l -2.6934,-1.12 v 10.96 h 0.37334 c 1.0667,0 2.16,-0.56001 2.16,-0.80001 v -1.28 h 10.133 v 1.9467 h 0.42667 c 0.82668,0 2.08,-0.50667 2.1067,-0.69334 v -7.8668 c 0.48001,-0.08 0.85334,-0.32 0.98668,-0.50667 l -2.56,-1.9734 z m 6.3467,-9.5468 c 0.4,0 0.66668,-0.13334 0.74668,-0.42667 -1.04,-0.96001 -2.7734,-2.2934 -2.7734,-2.2934 l -1.52,1.9467 h -6.5867 v -3.5734 c 0.69334,-0.10667 0.90668,-0.37334 0.98668,-0.74668 l -3.52,-0.34667 v 4.6667 h -10.667 l 0.21334,0.77334 h 8.6934 c -1.9467,3.4667 -5.3067,6.8534 -9.4401,9.0134 l 0.24,0.37334 c 4.6134,-1.6534 8.4001,-4.1601 10.96,-7.3334 v 6.4001 h 0.45334 c 0.96001,0 2.08,-0.50667 2.08,-0.74668 v -7.7068 h 0.02667 c 1.8934,3.9734 5.4134,6.9068 9.2534,8.7734 0.34667,-1.2267 1.0667,-2.0534 2.1067,-2.24 l 0.05333,-0.29334 c -3.8667,-1.0933 -8.4001,-3.28 -10.747,-6.2401 z"
     id="path202"
     style="fill:#990000" />
  <metadata
     id="metadata283">
    <rdf:RDF>
      <cc:Work
         rdf:about="">
        <dc:title>杏</dc:title>
      </cc:Work>
    </rdf:RDF>
  </metadata>
</svg>
