<?xml version="1.0" encoding="UTF-8"?>
<svg version="1.1" viewBox="0 0 50 50" xmlns="http://www.w3.org/2000/svg">
  <title>と</title>
  <path d="m6.1426 49.005h37.715l-6.3481-45.745-12.51-2.2497-12.51 2.2497-6.3475 45.745z" fill="#fff" fill-rule="evenodd" stroke="#900" stroke-width="2"/>
  <g fill="#900" aria-label="と">
    <path d="m27.987 20.16c0.48001 0.29334 0.98668 0.66668 1.2 1.1467 0.13334 0.34667 0.05333 0.56001-0.29334 0.77334-0.77334 0.45334-3.1467 1.7067-5.0667 2.88-0.64001-0.42667-1.0667-1.0133-1.36-1.8134-0.32-0.96001-0.50667-2.6134-0.50667-3.6534-0.02667-0.66668 0.18667-1.12 0.16-1.6267 0-0.77334-1.5467-1.8667-3.0934-1.8667-0.66668 0-1.28 0.18667-2 0.42667l0.02667 0.48001c0.48001 0.13334 1.0933 0.32 1.52 0.53334 0.53334 0.29334 0.72001 0.58667 0.80001 1.12 0.24 1.76 0.61334 4.1867 1.1733 5.4934 0.34667 0.80001 0.82668 1.52 1.5734 2-1.92 1.44-4.8267 4.0801-4.8267 7.0934s3.0934 4.5601 7.7334 4.5601c3.3334 0 5.7601-0.34667 6.8268-0.69334 0.64001-0.24 1.12-0.72001 1.12-1.2 0-1.0933-1.1467-1.3867-2.48-1.3867-0.64001 0-2.6934 0.77334-6.4267 0.77334-3.6267 0-5.1467-0.98668-5.1467-2.5867 0-2.1867 2.4267-4.2134 4.6934-5.5467 2.0534-1.2 5.0934-2.5334 6.9601-3.12 1.2-0.42667 1.76-0.69334 1.76-1.28 0-0.74668-0.90668-1.8934-1.92-2.4267-0.58667-0.29334-1.3867-0.37334-2.24-0.42667z"/>
  </g>
</svg>
