<?xml version="1.0" encoding="UTF-8"?>
<svg version="1.1" viewBox="0 0 80 80" xmlns="http://www.w3.org/2000/svg">
  <title>Ogi board</title>
  <path d="m0.15 0.15h79.7v79.7h-79.7z" fill="#cd853f" stroke="#000" stroke-width=".3"/>
  <g fill="#fc9" stroke-width=".79515">
    <g aria-label="1">
      <path d="m75.333 1.952h-0.29093v-1.0964q-0.15944 0.14909-0.37583 0.22053v-0.26401q0.11389-0.037273 0.24745-0.14081 0.13356-0.10457 0.18326-0.24331h0.23606z" stroke-width=".63227"/>
    </g>
    <g aria-label="3">
      <path d="m54.496 1.5492 0.28162-0.034167q0.01346 0.10768 0.07247 0.16462 0.05902 0.056944 0.14288 0.056944 0.09008 0 0.15116-0.068333 0.06212-0.068333 0.06212-0.18429 0-0.10975-0.05902-0.17394-0.05901-0.064192-0.14391-0.064192-0.05591 0-0.13356 0.021742l0.0321-0.2371q0.11803 0.00311 0.18015-0.050732 0.06212-0.054874 0.06212-0.14495 0-0.076616-0.04556-0.12217-0.04556-0.045556-0.12114-0.045556-0.07455 0-0.12735 0.051768-0.0528 0.051768-0.06419 0.15116l-0.26816-0.045556q0.02795-0.1377 0.08386-0.21949 0.05695-0.082828 0.15737-0.12942 0.10146-0.047626 0.22674-0.047626 0.21432 0 0.34374 0.13667 0.10664 0.11182 0.10664 0.25263 0 0.19982-0.21846 0.31889 0.13046 0.027954 0.20811 0.12528 0.07869 0.097323 0.07869 0.23502 0 0.19982-0.14598 0.34063-0.14598 0.14081-0.36341 0.14081-0.20604 0-0.34167-0.11803-0.13563-0.11907-0.15737-0.31061z" stroke-width=".63227"/>
    </g>
    <g aria-label="5">
      <path d="m34.49 1.5616 0.2899-0.030025q0.01242 0.098358 0.07351 0.15634 0.06108 0.056944 0.14081 0.056944 0.09111 0 0.15427-0.07351 0.06316-0.074545 0.06316-0.22364 0-0.13977-0.06316-0.20914-0.06212-0.070404-0.16255-0.070404-0.12528 0-0.22467 0.11078l-0.23606-0.034167 0.14909-0.78997h0.76927v0.2723h-0.54874l-0.04556 0.2578q0.09732-0.048662 0.19879-0.048662 0.19361 0 0.32821 0.14081 0.1346 0.14081 0.1346 0.36548 0 0.1874-0.10871 0.33442-0.14806 0.20086-0.41104 0.20086-0.21018 0-0.3427-0.11285-0.13252-0.11285-0.15841-0.30336z" stroke-width=".63227"/>
    </g>
    <g aria-label="7">
      <path d="m14.503 0.72506v-0.27023h0.99497v0.21121q-0.12321 0.12114-0.25056 0.34788-0.12735 0.22674-0.19465 0.48247-0.066263 0.2547-0.065228 0.45555h-0.28058q0.0072-0.31475 0.12942-0.64192 0.12321-0.32717 0.32821-0.58497z" stroke-width=".63227"/>
    </g>
    <g aria-label="8">
      <path d="m4.7546 1.133q-0.11285-0.047626-0.16462-0.13045-0.050732-0.083863-0.050732-0.18326 0-0.1698 0.11803-0.28058 0.11907-0.11078 0.33752-0.11078 0.21639 0 0.33545 0.11078 0.1201 0.11078 0.1201 0.28058 0 0.10561-0.054874 0.18843-0.054874 0.081793-0.15427 0.12528 0.12631 0.050732 0.19154 0.14806 0.066262 0.097323 0.066262 0.22467 0 0.21018-0.1346 0.34167-0.13356 0.13149-0.35616 0.13149-0.20707 0-0.34477-0.10871-0.16255-0.12838-0.16255-0.35202 0-0.12321 0.061086-0.22571 0.061086-0.10354 0.19258-0.15944zm0.06005-0.293q0 0.08697 0.048662 0.13563 0.049697 0.048662 0.13149 0.048662 0.082828 0 0.13252-0.048662 0.049697-0.049697 0.049697-0.13667 0-0.081793-0.049697-0.13045-0.048661-0.049697-0.12942-0.049697-0.083864 0-0.13356 0.049697-0.049697 0.049697-0.049697 0.13149zm-0.026919 0.6502q0 0.1201 0.061086 0.1874 0.062121 0.067298 0.15427 0.067298 0.090075 0 0.14909-0.064192 0.059015-0.065227 0.059015-0.1874 0-0.10664-0.06005-0.17083-0.06005-0.065227-0.1522-0.065227-0.10664 0-0.15944 0.07351-0.051768 0.07351-0.051768 0.15944z" stroke-width=".63227"/>
    </g>
    <g aria-label="6">
      <path d="m25.479 0.80581-0.28162 0.031061q-0.01035-0.08697-0.05384-0.12838-0.04348-0.041414-0.11285-0.041414-0.09215 0-0.15634 0.082828-0.06316 0.082828-0.07972 0.34477 0.10871-0.12838 0.27023-0.12838 0.18222 0 0.31164 0.13874 0.13046 0.13874 0.13046 0.35823 0 0.23295-0.13667 0.37376-0.13667 0.14081-0.35098 0.14081-0.22985 0-0.3779-0.17808-0.14806-0.17912-0.14806-0.58601 0-0.41725 0.15427-0.60154 0.15427-0.18429 0.40068-0.18429 0.1729 0 0.28576 0.097323 0.11389 0.096288 0.14495 0.28058zm-0.65952 0.63467q0 0.14184 0.06523 0.21949 0.06523 0.076616 0.14909 0.076616 0.08076 0 0.1346-0.063156 0.05384-0.063156 0.05384-0.20707 0-0.14806-0.05798-0.21639-0.05798-0.069368-0.14495-0.069368-0.08386 0-0.14184 0.066262-0.05798 0.065227-0.05798 0.19361z" stroke-width=".63227"/>
    </g>
    <g aria-label="4">
      <path d="m45.076 1.9519v-0.30543h-0.62121v-0.2547l0.65848-0.96391h0.24434v0.96288h0.18843v0.25573h-0.18843v0.30543zm0-0.56116v-0.51871l-0.34891 0.51871z" stroke-width=".63227"/>
    </g>
    <g aria-label="2">
      <path d="m65.51 1.6817v0.27023h-1.0198q0.01657-0.15323 0.09939-0.2899 0.08283-0.1377 0.32717-0.36444 0.19672-0.18326 0.24124-0.24848 0.06005-0.090076 0.06005-0.17808 0-0.097323-0.0528-0.14909-0.05177-0.052803-0.14391-0.052803-0.09111 0-0.14495 0.054874t-0.06212 0.18222l-0.2899-0.02899q0.02588-0.2402 0.16255-0.34477 0.13667-0.10457 0.34167-0.10457 0.22467 0 0.35306 0.12114t0.12838 0.30129q0 0.1025-0.03727 0.19568-0.03624 0.092146-0.11596 0.19361-0.0528 0.067298-0.1905 0.19361-0.1377 0.12631-0.17498 0.16773-0.03624 0.041414-0.05901 0.080757z" stroke-width=".63227"/>
    </g>
    <g aria-label="一">
      <path d="m77.522 5.0891 0.01908 0.067853h1.8999c0.03605 0 0.05937-0.010602 0.06573-0.033926-0.11662-0.11026-0.31169-0.27989-0.31169-0.27989l-0.17599 0.24597z"/>
    </g>
    <g aria-label="三">
      <path d="m77.516 25.8 0.01696 0.05937h1.9253c0.03181 0 0.05513-0.0106 0.06149-0.03393-0.10814-0.09118-0.28201-0.22476-0.28201-0.22476l-0.15691 0.19932zm0.25657-0.7697 0.01696 0.06149h1.3825c0.03181 0 0.05513-0.0106 0.06149-0.03393-0.10178-0.08694-0.26929-0.21204-0.26929-0.21204l-0.14843 0.18448zm-0.14207-0.69761 0.01696 0.06149h1.6963c0.02969 0 0.05513-0.0106 0.06149-0.03393-0.1039-0.08906-0.27565-0.22052-0.27565-0.22052l-0.15267 0.19296z"/>
    </g>
    <g aria-label="五">
      <path d="m78.801 45.001v0.82908h-0.58099c0.05513-0.2184 0.1251-0.52586 0.19084-0.82908zm0.32442 0.82908h-0.06997v-0.79303c0.04453-0.0064 0.07209-0.02332 0.08482-0.04029l-0.23748-0.1866-0.12298 0.13146h-0.35623c0.04241-0.20568 0.0827-0.40712 0.1145-0.57463h0.78879c0.03181 0 0.05513-0.0106 0.06149-0.03393-0.09542-0.08906-0.26081-0.22264-0.26081-0.22264l-0.14419 0.19508h-1.3465l0.01696 0.06149h0.62128c-0.02969 0.16539-0.06785 0.36683-0.11238 0.57463h-0.4262l0.01908 0.05937h0.39439c-0.06361 0.3011-0.13358 0.60855-0.19084 0.82908h-0.45164l0.01696 0.05937h1.9296c0.03181 0 0.05513-0.0106 0.06149-0.03393-0.09118-0.09118-0.24809-0.23324-0.24809-0.23324z"/>
    </g>
    <g aria-label="七">
      <path d="m79.064 64.687-0.67217 0.12722v-0.64884c0.05513-0.0064 0.07421-0.03181 0.07633-0.05937l-0.33078-0.03393v0.78879l-0.62552 0.11874 0.02756 0.05513 0.59795-0.11238v0.74002c0 0.22052 0.1039 0.26505 0.36895 0.26505h0.28201c0.47709 0 0.59371-0.04453 0.59371-0.16963 0-0.04877-0.02332-0.07845-0.10602-0.11238l-0.0085-0.36259h-0.0212c-0.05513 0.17599-0.09754 0.29898-0.12934 0.34987-0.01908 0.02756-0.04029 0.03605-0.07845 0.03817-0.04453 0.0042-0.1251 0.0042-0.22688 0.0042h-0.27777c-0.10602 0-0.14207-0.01908-0.14207-0.08482v-0.7167l1.0581-0.19932c0.02969-0.0042 0.05301-0.0212 0.05301-0.04453-0.12298-0.07633-0.31382-0.17811-0.31382-0.17811z"/>
    </g>
    <g aria-label="二">
      <path d="m77.535 15.669 0.01696 0.06149h1.8787c0.02969 0 0.05513-0.0106 0.06149-0.03393-0.11026-0.09754-0.2905-0.2396-0.2905-0.2396l-0.16115 0.21204zm0.20568-1.1917 0.01696 0.05937h1.4588c0.02969 0 0.05513-0.0106 0.06149-0.03393-0.10602-0.0933-0.28413-0.23324-0.28413-0.23324l-0.15691 0.2078z"/>
    </g>
    <g aria-label="四">
      <path d="m77.878 35.612v-0.27565l0.0106 0.01272c0.44528-0.23324 0.48557-0.58099 0.49617-1.0348h0.18023v0.71882c0 0.13995 0.01908 0.1866 0.17599 0.1866h0.09966c0.20356 0 0.27353-0.04453 0.27353-0.12934 0-0.04241-0.0106-0.07209-0.06149-0.09754l-0.0085-0.2078h-0.02332c-0.02545 0.08694-0.05301 0.18023-0.06785 0.20144-0.0085 0.01484-0.0212 0.01696-0.03605 0.01908-0.0106 0.0021-0.02969 0.0021-0.05301 0.0021h-0.05089c-0.02969 0-0.03393-0.0085-0.03393-0.03605v-0.65732h0.34562v1.2977zm0.27353-1.2977c-0.0021 0.40288-0.0042 0.7273-0.27353 0.99023v-0.99023zm1.0708-0.19084-0.11874 0.13146h-1.2065l-0.26081-0.10602v1.7281h0.04029c0.10178 0 0.20144-0.05937 0.20144-0.08906v-0.11662h1.2468v0.18872h0.04029c0.08694 0 0.20144-0.05725 0.20356-0.07633v-1.4292c0.04453-0.0085 0.07421-0.02756 0.08906-0.04453z"/>
    </g>
    <g aria-label="六">
      <path d="m77.52 55.924c0.34774-0.17387 0.62976-0.44104 0.82484-0.87148 0.04877 0.0064 0.07845-0.0106 0.08906-0.03393l-0.3329-0.13783c-0.1145 0.42196-0.35835 0.79515-0.60219 1.0199zm1.1768-0.99023c0.22476 0.23536 0.4474 0.59159 0.50678 0.89481 0.30958 0.24809 0.51526-0.47073-0.48345-0.90965zm0.36895-0.36471h-0.43468v-0.40712c0.05513-0.0085 0.07421-0.02969 0.07845-0.05937l-0.33714-0.02757v0.49405h-0.82696l0.01696 0.06149h1.8617c0.03181 0 0.05301-0.0106 0.05937-0.03393-0.10178-0.08694-0.26717-0.21416-0.26717-0.21416z"/>
    </g>
    <g aria-label="八">
      <path d="m77.529 75.936c0.47709-0.24385 0.7167-0.70185 0.82272-1.2807 0.05089-0.0021 0.07421-0.02544 0.08058-0.05301l-0.36047-0.06573c-0.04453 0.58311-0.2184 1.092-0.56615 1.3804zm1.1705-1.8723-0.09118 0.13783h-0.58099l0.01908 0.06149h0.62764c0.06361 0.75698 0.20356 1.304 0.59583 1.6539 0.03817-0.1039 0.13358-0.2078 0.24809-0.24385l0.01272-0.02544c-0.47285-0.25445-0.70397-0.76546-0.79727-1.3422 0.09966-0.0085 0.17175-0.02969 0.20356-0.06573z"/>
    </g>
  </g>
  <g fill="none" stroke="#000" stroke-width=".30038">
    <path d="m10.05 0.14962v79.7"/>
    <path d="m20.05 0.14962v79.7"/>
    <path d="m30.05 0.14962v79.7"/>
    <path d="m40.05 0.14962v79.7"/>
    <path d="m60.05 0.14962v79.7"/>
    <path d="m50.05 0.14962v79.7"/>
    <path d="m70.05 0.14962v79.7"/>
    <path d="m79.9 9.9996h-79.7"/>
    <path d="m79.9 20h-79.7"/>
    <path d="m79.9 30h-79.7"/>
    <path d="m79.9 40h-79.7"/>
    <path d="m79.9 60h-79.7"/>
    <path d="m79.9 50h-79.7"/>
    <path d="m79.9 70h-79.7"/>
  </g>
</svg>
