<?xml version="1.0" encoding="UTF-8"?>
<svg version="1.1" viewBox="0 0 4096 4096" xmlns="http://www.w3.org/2000/svg">
  <title>Ogi Gote Knight</title>

  <g transform="rotate(180 2048 2048)">
    <polygon points="2048 479 3231 1034 3570 3964 526 3964 865 1034" fill="#fff" stroke="#000" stroke-linejoin="round" stroke-width="148"/>
    <path d="m1647.4 1730.3q9.712-16.996 24.28-43.704 16.996-26.708 26.708-38.848t19.424-12.14q14.568 0 60.7 48.56 48.56 46.132 89.836 99.548 43.704 53.416 43.704 70.412-7.284 38.848-60.7 38.848h-284.08v288.93q177.24 58.272 257.37 143.25 82.552 84.98 82.552 169.96 0 53.416-33.992 92.264-31.564 36.42-80.124 36.42t-99.548-43.704q-16.996-145.68-126.26-342.35v602.14q4.856 301.07 19.424 570.58-16.996 29.136-89.836 60.7-70.412 31.564-140.82 31.564-36.42 0-58.272-14.568-19.424-14.568-19.424-33.992l2.428-48.56q16.996-320.5 21.852-570.58v-335.06q-135.97 233.09-344.78 432.18l-31.564-26.708q123.83-196.67 211.24-461.32t133.54-551.16h-92.264q-75.268 2.428-155.39 33.992l-63.128-123.83q97.12 14.568 233.09 19.424h109.26v-106.83q0-305.93-31.564-497.74 203.95 46.132 281.65 72.84 77.696 24.28 77.696 43.704 0 9.712-19.424 21.852l-43.704 26.708v439.47h26.708zm1180 347.2q9.712-12.14 29.136-41.276 19.424-31.564 31.564-46.132t21.852-14.568q14.568 0 75.268 50.988 63.128 50.988 116.54 106.83 55.844 55.844 55.844 72.84-9.712 38.848-63.128 38.848h-895.93q-172.39 2.428-364.2 33.992l-63.128-121.4q133.54 14.568 322.92 19.424h186.96v-441.9h-135.97q-116.54 2.428-242.8 33.992l-63.128-123.83q123.83 14.568 301.07 19.424h140.82q0-269.51-26.708-427.33 203.95 43.704 281.65 70.412 80.124 24.28 80.124 41.276 0 9.712-19.424 21.852l-43.704 29.136v264.65h138.4l65.556-97.12q9.712-14.568 29.136-43.704t31.564-41.276q12.14-14.568 21.852-14.568 14.568 0 72.84 50.988 60.7 48.56 114.12 104.4t53.416 72.84q-9.712 38.848-65.556 38.848h-461.32v441.9h208.81zm-48.56 573.01q9.712-14.568 29.136-43.704t31.564-41.276q12.14-14.568 21.852-14.568 14.568 0 75.268 50.988 60.7 48.56 114.12 104.4t53.416 72.84q-9.712 38.848-65.556 38.848h-485.6v541.44h223.38l63.128-99.548q9.712-14.568 29.136-43.704t31.564-41.276q12.14-14.568 21.852-14.568 14.568 0 75.268 50.988 63.128 50.988 116.54 106.83 55.844 55.844 55.844 72.84-9.712 38.848-63.128 38.848h-1012.5q-172.39 2.428-364.2 33.992l-63.128-123.83q133.54 14.568 322.92 19.424h291.36v-541.44h-155.39q-138.4 2.428-286.5 33.992l-63.128-123.83q133.54 14.568 322.92 19.424h182.1q0-271.94-29.136-454.04 206.38 43.704 284.08 70.412 80.124 24.28 80.124 43.704 0 7.284-19.424 19.424l-43.704 26.708v293.79h162.68z" dominant-baseline="central" aria-label="桂"/>
  </g>
</svg>
