<?xml version="1.0" encoding="UTF-8"?>
<svg version="1.1" viewBox="0 0 50 50" xmlns="http://www.w3.org/2000/svg">
  <title>桂</title>
  <path d="m6.1426 49.005h37.715l-6.3481-45.745-12.51-2.2497-12.51 2.2497-6.3475 45.745z" fill="#fff" fill-rule="evenodd" stroke="#000" stroke-width="2"/>
  <g aria-label="桂">
    <path d="m23.013 21.493h4.7467v4.9067h-5.8134l0.21334 0.77334h14.614c0.37334 0 0.64001-0.13334 0.72001-0.42667-0.98668-0.96001-2.64-2.2667-2.64-2.2667l-1.4667 1.92h-3.0934v-4.9067h5.4401c0.37334 0 0.61334-0.10667 0.69334-0.4-0.96001-0.93334-2.6134-2.2667-2.6134-2.2667l-1.4134 1.92h-2.1067v-3.3867c0.69334-0.10667 0.93334-0.37334 0.98668-0.77334l-3.52-0.32v4.4801h-4.9601zm-3.7867 1.6534h3.28c0.34667 0 0.64001-0.13334 0.69334-0.42667-0.80001-0.90668-2.2134-2.1867-2.2134-2.1867l-1.2267 1.84h-0.53334v-5.2534c0.69334-0.10667 0.90668-0.34667 0.96001-0.74668l-3.44-0.37334v6.3734h-3.8667l0.21334 0.77334h3.3067c-0.69334 3.9467-2.0267 8.0268-4.0534 11.067l0.34667 0.32c1.6534-1.6 2.9867-3.4134 4.0534-5.4134v11.6h0.50667c0.90668 0 1.9734-0.50667 1.9734-0.77334v-12.987c0.72001 1.12 1.5467 2.5867 1.76 3.7867 1.9467 1.6267 4-2.24-1.76-4.3734zm14.347 16.054h-3.28v-5.9201h5.7601c0.34667 0 0.61334-0.13334 0.69334-0.42667-0.96001-0.93334-2.5867-2.24-2.5867-2.24l-1.4667 1.92h-2.4v-3.68c0.69334-0.10667 0.93334-0.37334 0.98668-0.74668l-3.52-0.32v4.7467h-5.6267l0.21334 0.74668h5.4134v5.9201h-7.1734l0.21334 0.77334h16.134c0.37334 0 0.66668-0.13334 0.72001-0.42667-0.98668-0.96001-2.6134-2.2934-2.6134-2.2934z"/>
  </g>
</svg>
