<?xml version="1.0" encoding="UTF-8"?>
<svg version="1.1" viewBox="0 0 50 50" xmlns="http://www.w3.org/2000/svg">
  <title>歩</title>
  <path d="m6.1426 49.005h37.715l-6.3481-45.745-12.51-2.2497-12.51 2.2497-6.3475 45.745z" fill="#fff" fill-rule="evenodd" stroke="#000" stroke-width="2"/>
  <g aria-label="歩">
    <path d="m18.827 26.213c-1.0933 2.48-3.52 5.7334-6.1601 7.7601l0.24 0.32c3.4134-1.44 6.4001-3.9467 8.1068-6.1067 0.58667 0.10667 0.85334-0.02667 0.98668-0.29334zm1.0933 6.3734c1.28 0.18667 1.8667 0.42667 2.2667 0.80001s0.53334 0.93334 0.61334 1.68c3.0667-0.26667 3.4934-1.28 3.4934-3.0667v-5.6001c0.56001-0.08 0.80001-0.26667 0.88001-0.66668l-3.4134-0.32v6.5067c0 0.34667-0.13334 0.48001-0.53334 0.48001-0.53334 0-3.3067-0.18667-3.3067-0.18667zm-5.8667 8.1868c7.5468-0.74668 13.147-2.5334 18.107-8.5068 0.64001 0.13334 0.98668 0.05333 1.1733-0.24l-3.1467-1.7867c-4.0267 6.3467-9.4401 8.5601-16.214 10.08zm14.747-13.76c2.0534 1.3067 4.6401 3.6267 5.6801 5.6001 2.8 1.28 3.7334-4.3734-5.4667-5.8667zm3.9734-2.4534h-6.4534v-3.6534h7.4401c0.37334 0 0.66668-0.13334 0.74668-0.42667-1.12-0.96001-2.9334-2.3467-2.9334-2.3467l-1.6 2h-3.6534v-3.0667c0.69334-0.10667 0.93334-0.37334 0.98668-0.74668l-3.5467-0.32v8.5601h-3.84v-5.5734c0.64001-0.10667 0.82668-0.34667 0.88001-0.69334l-3.3067-0.29334v6.5601h-4.8267l0.24 0.74668h23.68c0.4 0 0.66668-0.10667 0.74668-0.4-1.0933-0.98668-2.9334-2.3734-2.9334-2.3734z"/>
  </g>
</svg>
