<?xml version="1.0" encoding="UTF-8"?>
<svg version="1.1" viewBox="0 0 50 50" xmlns="http://www.w3.org/2000/svg">
  <title>姫</title>
  <path d="m6.1428 49.005h37.715l-6.3481-45.745-12.51-2.2497-12.51 2.2497-6.3475 45.745z" fill="#fff" fill-rule="evenodd" stroke="#000" stroke-width="2"/>
  <path d="m19.333 22.88c-0.16 3.1734-0.53334 6.2401-1.44 9.0401-0.77334-0.42667-1.68-0.82668-2.7467-1.2 0.56001-2.3734 1.1467-5.2267 1.6267-7.8401zm-0.18667-0.80001h-2.2134c0.37334-1.9467 0.66668-3.7067 0.82668-4.9334 0.69334-0.05333 0.93334-0.32 1.0133-0.66668l-2.5067-0.42667c-0.16 1.4934-0.48001 3.68-0.90668 6.0267h-2.64l0.24 0.80001h2.24c-0.69334 3.7867-1.6 7.8668-2.2667 10.107 0.69334 0.21334 1.36 0.16 1.7067-0.08 0.13334-0.50667 0.26667-1.0667 0.4-1.6534 0.77334 0.56001 1.6267 1.2267 2.4 1.92-1.0133 2.56-2.5334 4.8534-4.8801 6.6668l0.32 0.4c2.6667-1.6534 4.4534-3.7334 5.6267-6.0801 0.93334 0.96001 1.7067 1.92 2.1334 2.7734 1.6534 0.85334 2.3467-1.7334-1.44-4.2667 1.1467-2.96 1.5734-6.2401 1.8667-9.5468 0.56001-0.05333 0.77334-0.13334 0.98668-0.37334l-1.92-1.7067zm5.2801 9.0401h3.9734v6.3201h-3.9734zm3.9734-12.107v5.2534h-3.9734v-5.2534zm5.0667 6.0267v5.3067h-9.0401v-5.3067zm0.50667 12.4h-3.8667v-6.3201h3.36v2h0.26667c0.56001 0 1.3867-0.4 1.4134-0.58667v-7.1468c0.53334-0.10667 0.96001-0.34667 1.1467-0.56001l-2.1067-1.6-0.98668 1.04h-3.0934v-5.2534h5.7601c0.37334 0 0.61334-0.13334 0.69334-0.42667-0.85334-0.80001-2.1867-1.84-2.1867-1.84l-1.2267 1.4667h-8.4001l-1.9734-0.85334v23.174h0.24c0.88001 0 1.4134-0.48001 1.4134-0.61334v-1.7067h12.347c0.34667 0 0.61334-0.13334 0.66668-0.42667-0.85334-0.80001-2.2667-1.8934-2.2667-1.8934z" aria-label="姫"/>
</svg>
