<?xml version="1.0" encoding="UTF-8"?>
<svg version="1.1" viewBox="0 0 4096 4096" xmlns="http://www.w3.org/2000/svg">
  <title>Ogi Gote Promoted Princess</title>

  <g transform="rotate(180 2048 2048)">
    <polygon points="2048 134 3348 744 3720 3964 376 3964 748 744" fill="#fff" stroke="#000" stroke-linejoin="round" stroke-width="148"/>
    <path d="m1832.6 1693.9q0-148.9-13.295-231.33l300.47 132.95h220.7q0-303.13-29.249-481.28 220.7 50.521 303.13 79.77 82.429 26.59 82.429 47.862 0 10.636-21.272 23.931l-45.203 29.249v300.47h223.36l58.498-71.793q7.977-10.636 26.59-31.908t29.249-31.908q13.295-10.636 23.931-10.636 15.954 0 79.77 47.862 63.816 45.203 117 95.724 55.839 50.521 55.839 69.134-26.59 37.226-87.747 47.862v534.46q5.318 329.72 21.272 624.86-18.613 26.59-103.7 61.157-85.088 31.908-151.56 31.908-55.839 0-55.839-53.18 0 0 10.636-79.77v-69.134h-247.29v244.63q7.977 308.44 18.613 475.96-15.954 37.226-95.724 77.111-79.77 42.544-156.88 42.544-39.885 0-61.157-15.954-18.613-15.954-18.613-37.226 18.613-228.67 23.931-505.21v-281.85h-236.65v47.862q2.659 26.59 2.659 50.521 2.659 21.272 5.318 31.908-5.318 34.567-79.77 71.793t-156.88 37.226q-29.249 0-45.203-15.954-13.295-15.954-13.295-37.226 10.636-111.68 15.954-281.85v-167.52q-2.659 50.521-37.226 82.429-31.908 31.908-77.111 31.908-47.862 0-98.383-39.885-26.59-143.59-130.29-308.44v614.23q5.318 329.72 21.272 624.86-21.272 34.567-95.724 69.134-71.793 37.226-164.86 37.226-39.885 0-63.816-15.954-21.272-15.954-21.272-37.226 10.636-156.88 18.613-303.13 7.977-148.9 10.636-388.21v-382.9q-183.47 159.54-369.6 263.24l-21.272-21.272q204.74-196.77 385.56-473.3 183.47-276.54 273.88-523.82h-188.79q-164.86 2.659-350.99 37.226l-71.793-130.29q101.04 15.954 239.31 21.272h111.68v-2.659q0-335.03-34.567-545.1 212.72 45.203 295.15 74.452 82.429 26.59 82.429 45.203 0 10.636-18.613 23.931l-45.203 29.249v374.92h7.977l164.86-162.2zm507.87 428.1v-449.37h-236.65v449.37zm537.12 0v-449.37h-247.29v449.37zm-1045-337.69q-66.475 10.636-61.157 10.636-106.36 194.11-265.9 380.24 159.54 50.521 239.31 130.29 79.77 77.111 87.747 156.88zm271.22 412.14v489.26h236.65v-489.26zm526.48 0v489.26h247.29v-489.26z" dominant-baseline="central" fill="#900" aria-label="神"/>
  </g>
</svg>
