<?xml version="1.0" encoding="UTF-8"?>
<svg version="1.1" viewBox="0 0 4096 4096" xmlns="http://www.w3.org/2000/svg">
  <title>Ogi Gote Promoted Knight</title>

  <g transform="rotate(180 2048 2048)">
    <polygon points="2048 479 3231 1034 3570 3964 526 3964 865 1034" fill="#fff" stroke="#000" stroke-linejoin="round" stroke-width="148"/>
    <path d="m2749.7 2104.2q12.14-16.996 31.564-43.704t31.564-38.848q12.14-14.568 21.852-14.568 14.568 0 77.696 50.988 65.556 48.56 121.4 104.4 58.272 53.416 58.272 70.412-9.712 38.848-67.984 38.848h-1595.2q-172.39 2.428-364.2 33.992l-63.128-123.83q133.54 14.568 322.92 19.424h575.44v-478.32h-296.22q-172.39 2.428-364.2 33.992l-60.7-121.4q133.54 14.568 322.92 19.424h398.19q0-269.51-26.708-427.33 208.81 43.704 288.93 70.412 80.124 24.28 80.124 41.276 0 9.712-19.424 21.852l-41.276 26.708v267.08h366.63l65.556-94.692q12.14-16.996 31.564-43.704t31.564-38.848q12.14-14.568 21.852-14.568 14.568 0 77.696 48.56t118.97 101.98 55.844 70.412q-9.712 38.848-63.128 38.848h-706.55v478.32h500.17zm-92.264 543.87q12.14-16.996 31.564-43.704t31.564-38.848q12.14-14.568 21.852-14.568 14.568 0 77.696 50.988 65.556 48.56 121.4 104.4 55.844 53.416 55.844 70.412-9.712 38.848-65.556 38.848h-750.25v541.44h536.59l70.412-99.548q9.712-12.14 29.136-41.276 21.852-31.564 33.992-46.132 14.568-14.568 24.28-14.568 14.568 0 80.124 53.416 65.556 50.988 123.83 106.83t58.272 72.84q-7.284 38.848-63.128 38.848h-1709.3q-172.39 2.428-364.2 33.992l-60.7-123.83q133.54 14.568 322.92 19.424h636.14v-541.44h-339.92q-172.39 2.428-364.2 33.992l-63.128-123.83q133.54 14.568 322.92 19.424h444.32q0-274.36-26.708-434.61 211.24 43.704 288.93 70.412 80.124 24.28 80.124 43.704 0 9.712-19.424 21.852l-41.276 26.708v271.94h407.9z" dominant-baseline="central" fill="#900" aria-label="圭"/>
  </g>
</svg>
