<?xml version="1.0" encoding="UTF-8"?>
<svg version="1.1" viewBox="0 0 50 50" xmlns="http://www.w3.org/2000/svg">
  <title>銀</title>
  <path d="m6.1426 49.005h37.715l-6.3481-45.745-12.51-2.2497-12.51 2.2497-6.3475 45.745z" fill="#fff" fill-rule="evenodd" stroke="#000" stroke-width="2"/>
  <g aria-label="銀">
    <path d="m23.72 35.547c-1.52 0.32-3.0134 0.64001-4.4267 0.93334v-7.7334h3.8667c0.37334 0 0.61334-0.13334 0.69334-0.42667-0.88001-0.93334-2.3734-2.2134-2.3734-2.2134l-1.28 1.8667h-0.90668v-3.44h3.0934c0.34667 0 0.61334-0.13334 0.69334-0.42667-0.88001-0.85334-2.32-2.08-2.32-2.08l-1.28 1.7334h-4.5867c1.6534-1.7067 3.0667-3.7334 4.0267-5.5201 1.3067 1.3067 2.32 2.8 2.7734 3.8134 1.92 1.36 4.3467-2.4267-2.4534-4.4001 0.66668 0 0.96001-0.21334 1.04-0.50667l-3.28-1.1467c-0.72001 2.7734-2.7734 7.1734-4.9067 9.6268l0.32 0.24c0.82668-0.56001 1.6-1.2267 2.32-1.9734l0.18667 0.64001h2.1334v3.44h-4.2934l0.21334 0.77334h4.0801v8.2134c-1.9467 0.37334-3.5467 0.69334-4.5067 0.85334l1.6 2.8534c0.26667-0.10667 0.53334-0.32 0.64001-0.64001 4.1334-1.76 7.0134-3.1467 9.0134-4.1334zm-10.187-5.3867c0.42667 1.4667 0.82668 3.5734 0.64001 5.2801 1.6267 1.8667 3.92-1.84-0.32-5.3867zm6.8268 5.2801c0.85334-1.1467 1.7067-2.7467 2.4-4.1867 0.56001 0 0.85334-0.24 0.96001-0.56001l-2.9067-0.88001c-0.21334 1.8934-0.56001 4.0267-0.88001 5.4401zm6.4534-7.4668h2.0534c0.45334 3.2267 1.2533 5.8134 2.4267 7.9468-1.5467 0.34667-3.0934 0.69334-4.4801 0.98668zm6.3201-9.4135v3.8667h-6.3201v-3.8667zm-6.3201 8.6401v-4h6.3201v4zm8.0534 1.7334c-1.0667 1.4134-2.3734 2.9067-3.4934 3.92-0.88001-1.4134-1.5734-3.0134-2-4.8801h3.76v1.1467h0.42667c1.1733 0 2-0.48001 2-0.66668v-9.6001c0.56001-0.08 0.82668-0.24 1.0133-0.45334l-2.6134-1.9734-1.0667 1.36h-5.7334l-2.6134-1.0133v20.64c-1.2267 0.24-2.2134 0.45334-2.88 0.56001l1.4934 2.88c0.26667-0.10667 0.50667-0.34667 0.64001-0.64001 3.4934-1.68 5.9467-3.0134 7.7068-3.9467 1.04 1.76 2.4 3.2 4.0801 4.4001 0.42667-1.1467 1.2267-1.8667 2.2667-2l0.05333-0.29334c-2.48-1.0933-4.5867-2.72-6.1867-4.9867 1.44-0.53334 3.1467-1.3867 4.6134-2.32 0.61334 0.18667 0.90668 0.13334 1.12-0.13334z"/>
  </g>
</svg>
