<?xml version="1.0" encoding="UTF-8"?>
<svg version="1.1" viewBox="0 0 50 50" xmlns="http://www.w3.org/2000/svg">
  <title>金</title>
  <path d="m6.1426 49.005h37.715l-6.3481-45.745-12.51-2.2497-12.51 2.2497-6.3475 45.745z" fill="#fff" fill-rule="evenodd" stroke="#000" stroke-width="2"/>
  <g aria-label="金">
    <path d="m32.387 39.307h-6.3467v-8.2934h9.0934c0.37334 0 0.64001-0.13334 0.72001-0.42667-1.0667-0.93334-2.8267-2.2667-2.8267-2.2667l-1.52 1.92h-5.4667v-4.0801h4.5601c0.37334 0 0.64001-0.13334 0.72001-0.42667-1.0133-0.85334-2.6134-2.08-2.6134-2.08l-1.44 1.7334h-8.9601l0.21334 0.77334h4.9067v4.0801h-9.1201l0.21334 0.77334h8.9068v8.2934h-10.4l0.21334 0.77334h23.067c0.34667 0 0.64001-0.13334 0.72001-0.42667-1.12-1.04-3.0134-2.48-3.0134-2.48zm-15.307-7.0934c0.80001 1.4667 1.6534 3.6 1.6534 5.4134 2.24 2.2134 4.9601-2.5334-1.3334-5.5467zm10.96 6.2134c1.44-1.2 3.0934-2.96 4.4267-4.7201 0.56001 0.05333 0.90668-0.16 1.0133-0.48001l-3.4934-1.3067c-0.69334 2.2134-1.6 4.7734-2.32 6.2667zm-4.7467-22.427c-1.28 3.8134-6.5067 9.3334-11.013 12.053l0.18667 0.34667c5.1467-2.1867 10.667-6.5067 13.28-10.453 1.7867 4.0801 5.6267 7.3601 9.7335 9.4668 0.21334-1.0133 1.0133-2.08 2.1867-2.3734l0.05333-0.4c-4.3201-1.4667-9.0668-3.7334-11.493-7.0134 0.80001-0.05333 1.1467-0.21334 1.2267-0.56001z"/>
  </g>
</svg>
