<?xml version="1.0" encoding="UTF-8"?>
<svg version="1.1" viewBox="0 0 50 50" xmlns="http://www.w3.org/2000/svg">
  <title>王</title>
  <path d="m6.1428 49.005h37.715l-6.3481-45.745-12.51-2.2497-12.51 2.2497-6.3475 45.745z" fill="#fff" fill-rule="evenodd" stroke="#000" stroke-width="2"/>
  <path d="m33.147 38.027h-7.2801v-9.8668h8.3201c0.37334 0 0.64001-0.13334 0.66668-0.4-0.90668-0.85334-2.4-2.0267-2.4-2.0267l-1.3867 1.6534h-5.2001v-8.5334h9.2534c0.37334 0 0.66668-0.13334 0.72001-0.42667-0.96001-0.88001-2.5334-2.08-2.5334-2.08l-1.36 1.7067h-17.814l0.21334 0.80001h9.6801v8.5334h-8.7734l0.21334 0.77334h8.5601v9.8668h-11.093l0.24 0.80001h23.2c0.4 0 0.64001-0.13334 0.69334-0.42667-0.96001-0.90668-2.5334-2.08-2.5334-2.08z" aria-label="王"/>
</svg>
