<?xml version="1.0" encoding="UTF-8"?>
<svg version="1.1" viewBox="0 0 50 50" xmlns="http://www.w3.org/2000/svg">
  <title>香</title>
  <path d="m6.1426 49.005h37.715l-6.3481-45.745-12.51-2.2497-12.51 2.2497-6.3475 45.745z" fill="#fff" fill-rule="evenodd" stroke="#000" stroke-width="2"/>
  <g aria-label="香">
    <path d="m19.8 38.214v-3.4134h10.293v3.4134zm10.293-7.4134v3.2267h-10.293v-3.2267zm-0.26667-0.77334h-9.8668l-2.6667-1.12v11.867h0.4c1.0133 0 2.1067-0.56001 2.1067-0.80001v-0.98668h10.293v1.68h0.4c0.85334 0 2.1067-0.48001 2.1334-0.66668v-8.8001c0.50667-0.08 0.88001-0.32 1.04-0.53334l-2.6134-2zm6.5867-7.2001c0.37334 0 0.66668-0.13334 0.72001-0.42667-1.0133-0.90668-2.6934-2.1334-2.6934-2.1334l-1.4667 1.7867h-6.8001v-2.9334c2.32-0.21334 4.4801-0.48001 6.2401-0.77334 0.77334 0.32 1.3334 0.32 1.6 0.08l-2.4267-2.4267c-3.76 1.2-11.04 2.6134-16.8 3.1734l0.08 0.48001c2.8534 0 5.8934-0.10667 8.8268-0.32v2.72h-10.853l0.24 0.77334h8.3201c-2.0267 2.8267-5.2534 5.6801-8.9068 7.5468l0.24 0.4c4.4534-1.5467 8.3201-3.8134 10.96-6.7201v5.1734h0.42667c1.2533 0 2.0534-0.56001 2.0534-0.72001v-5.6801h0.26667c1.84 3.52 5.2267 5.9467 9.0668 7.4401 0.29334-1.2 0.96001-1.9734 1.9467-2.1867l0.05333-0.32c-3.8134-0.74668-8.0801-2.4-10.347-4.9334z"/>
  </g>
</svg>
