<?xml version="1.0" encoding="UTF-8"?>
<svg version="1.1" viewBox="0 0 4096 4096" xmlns="http://www.w3.org/2000/svg">
  <title>Ogi Sente Lance</title>
  <polygon points="2048 479 3231 1034 3570 3964 526 3964 865 1034" fill="#fff" stroke="#000" stroke-linejoin="round" stroke-width="148"/>
  <path d="m2786.1 1698.7q12.14-14.568 31.564-41.276t31.564-38.848 21.852-12.14q14.568 0 77.696 48.56 65.556 46.132 121.4 99.548 55.844 50.988 55.844 67.984-9.712 38.848-67.984 38.848h-789.1q135.97 152.96 373.91 257.37 237.94 101.98 507.45 152.96l-4.856 26.708q-75.268 19.424-126.26 84.98t-70.412 167.53q-541.44-235.52-742.97-689.55h-29.136v172.39q4.856 211.24 14.568 327.78-14.568 26.708-80.124 55.844t-155.39 29.136q-63.128 0-63.128-48.56 9.712-92.264 14.568-237.94v-143.25q-208.81 225.8-536.59 395.76l274.36 114.12h789.1l58.272-72.84q9.712-12.14 26.708-31.564 16.996-21.852 26.708-31.564 12.14-9.712 21.852-9.712 14.568 0 77.696 46.132 65.556 46.132 121.4 97.12 58.272 48.56 58.272 65.556-29.136 36.42-92.264 50.988v262.22q7.284 327.78 16.996 507.45-14.568 24.28-97.12 53.416-82.552 31.564-148.11 31.564-55.844 0-55.844-48.56 0 0 9.712-58.272v-55.844h-830.38v77.696q0 14.568-36.42 36.42-33.992 21.852-87.408 36.42-53.416 16.996-104.4 16.996-29.136 0-48.56-14.568t-19.424-33.992q9.712-143.25 16.996-276.79 7.284-135.97 9.712-354.49v-403.05q-184.53 94.692-393.34 165.1l-19.424-31.564q228.23-126.26 422.47-308.36 194.24-184.53 320.5-381.2h-305.93q-172.39 2.428-364.2 33.992l-63.128-123.83q133.54 14.568 322.92 19.424h628.85v-237.94q-371.48 24.28-687.12 24.28h-75.268l-4.856-41.276q373.91-46.132 793.96-135.97 422.47-92.264 667.7-179.67l247.66 257.37q-21.852 16.996-53.416 16.996-41.276 0-97.12-24.28-169.96 26.708-522.02 63.128v257.37h541.44zm-327.78 1184.9v-288.93h-830.38v288.93zm-830.38 70.412v310.78h830.38v-310.78z" dominant-baseline="central" aria-label="香"/>
</svg>
