<?xml version="1.0" encoding="UTF-8"?>
<svg version="1.1" viewBox="0 0 4096 4096" xmlns="http://www.w3.org/2000/svg">
  <title>Ogi Sente Promoted Silver General</title>
  <polygon points="2048 364 3270 937 3620 3964 476 3964 826 937" fill="#fff" stroke="#000" stroke-linejoin="round" stroke-width="148"/>
  <path d="m2145.7 1389.6q-177.86 293.08-523.54 576.15-343.18 283.06-703.9 438.38l-17.535-27.555q202.9-140.28 405.81-350.7 205.41-210.42 355.71-435.87 150.3-227.96 200.4-408.32l445.89 120.24q-7.515 25.05-35.07 40.08-27.555 12.525-85.17 17.535 145.29 215.43 418.34 363.22t611.22 255.51l-5.01 40.08q-90.18 25.05-152.8 110.22-62.625 82.665-80.16 177.86-290.58-165.33-508.52-393.28-217.94-230.46-325.65-523.54zm413.32 1272.5q12.525-15.03 32.565-42.585t32.565-40.08q15.03-15.03 25.05-15.03 15.03 0 82.665 50.1t127.76 105.21 60.12 72.645q-7.515 40.08-65.13 40.08h-663.82v543.58h508.52l75.15-107.72q15.03-20.04 35.07-50.1 22.545-30.06 35.07-42.585 12.525-15.03 22.545-15.03 15.03 0 85.17 55.11 72.645 55.11 135.27 115.23t62.625 77.655q-10.02 40.08-67.635 40.08h-1660.8q-177.86 2.505-375.75 35.07l-65.13-127.76q137.78 15.03 333.16 20.04h581.16v-543.58h-202.9q-177.86 2.505-370.74 35.07l-65.13-127.76q137.78 15.03 333.16 20.04h305.61v-470.94h-177.86q-155.31 2.505-325.65 35.07l-62.625-127.76q137.78 15.03 333.16 20.04h703.9l65.13-92.685q10.02-12.525 30.06-40.08t32.565-40.08q12.525-15.03 22.545-15.03 15.03 0 80.16 50.1 65.13 47.595 120.24 100.2 57.615 52.605 57.615 70.14-10.02 40.08-65.13 40.08h-518.54v470.94h298.1z" dominant-baseline="central" fill="#900" aria-label="全"/>
</svg>
