<?xml version="1.0" encoding="UTF-8"?>
<svg version="1.1" viewBox="0 0 4096 4096" xmlns="http://www.w3.org/2000/svg">
  <title>Ogi Sente Promoted Lance</title>
  <polygon points="2048 479 3231 1034 3570 3964 526 3964 865 1034" fill="#fff" stroke="#000" stroke-linejoin="round" stroke-width="148"/>
  <path d="m2774 1555.5q14.568-19.424 31.564-46.132 19.424-26.708 31.564-38.848 12.14-14.568 21.852-14.568 14.568 0 80.124 50.988 65.556 48.56 121.4 104.4 58.272 53.416 58.272 70.412-9.712 38.848-65.556 38.848h-815.81q138.4 182.1 388.48 315.64 252.51 133.54 536.59 211.24l-4.856 26.708q-82.552 16.996-138.4 82.552t-82.552 172.39q-546.3-288.93-755.11-808.52v237.94q7.284 298.64 16.996 458.89-14.568 29.136-92.264 58.272-75.268 29.136-152.96 29.136-33.992 0-50.988-14.568-14.568-14.568-14.568-33.992 12.14-114.12 16.996-305.93v-179.67q-337.49 395.76-944.49 611.86l-19.424-31.564q259.8-145.68 468.6-366.63t327.78-463.75h-342.35q-172.39 2.428-364.2 33.992l-65.556-121.4q133.54 14.568 322.92 19.424h616.71q0-281.65-26.708-444.32 206.38 43.704 284.08 70.412 80.124 24.28 80.124 43.704 0 9.712-19.424 21.852l-41.276 26.708v281.65h524.45zm-1114.5 1862.3q0 12.14-36.42 33.992t-89.836 36.42q-53.416 16.996-104.4 16.996-29.136 0-43.704-14.568t-14.568-33.992q9.712-111.69 16.996-301.07v-174.82q0-305.93-31.564-497.74l318.07 128.68h784.24l55.844-70.412q12.14-12.14 36.42-41.276t38.848-29.136 77.696 46.132q63.128 43.704 116.54 94.692 55.844 48.56 55.844 65.556-7.284 14.568-31.564 26.708-21.852 12.14-53.416 19.424v233.09q7.284 293.79 16.996 451.61-14.568 24.28-99.548 53.416-82.552 29.136-145.68 29.136-55.844 0-55.844-48.56 0 0 9.712-72.84v-63.128h-820.66zm0-735.68v553.58h820.66v-553.58z" dominant-baseline="central" fill="#900" aria-label="æ"/>
</svg>
