<?xml version="1.0" encoding="UTF-8"?>
<svg version="1.1" viewBox="0 0 4096 4096" xmlns="http://www.w3.org/2000/svg">
  <title>Ogi Sente Promoted Bishop</title>
  <polygon points="2048 249 3309 841 3670 3964 426 3964 787 841" fill="#fff" stroke="#000" stroke-linejoin="round" stroke-width="148"/>
  <path d="m2595.4 2043.8q12.91-15.492 33.566-43.894t33.566-41.312 23.238-12.91q15.492 0 82.624 51.64 69.714 49.058 129.1 105.86 59.386 54.222 59.386 72.296-10.328 41.312-72.296 41.312h-645.5v307.26h552.55l69.714-74.878q12.91-12.91 41.312-43.894 30.984-30.984 46.476-30.984t77.46 49.058 116.19 105.86q56.804 54.222 56.804 72.296-28.402 36.148-100.7 46.476-28.402 358.9-87.788 562.88-56.804 203.98-152.34 276.27-61.968 46.476-142.01 64.55-80.042 20.656-196.23 20.656 0-67.132-10.328-111.03t-41.312-72.296q-64.55-61.968-247.87-100.7v-33.566q255.62 23.238 351.15 23.238 33.566 0 51.64-5.164t33.566-20.656q49.058-38.73 87.788-206.56 41.312-170.41 67.132-446.69h-1272.9v59.386q0 12.91-30.984 33.566t-85.206 38.73q-54.222 15.492-123.94 15.492-36.148 0-56.804-15.492t-20.656-36.148q10.328-136.85 15.492-268.53 7.746-134.26 10.328-335.66v-327.91q0-325.33-33.566-529.31l358.9 142.01h996.65l74.878-103.28q10.328-12.91 30.984-43.894 23.238-30.984 36.148-43.894 15.492-15.492 25.82-15.492 15.492 0 85.206 54.222 69.714 51.64 131.68 111.03 61.968 56.804 61.968 74.878-10.328 41.312-67.132 41.312h-710.05v307.26h284.02l72.296-95.534q15.492-18.074 30.984-38.73 18.074-23.238 33.566-38.73 15.492-18.074 25.82-18.074 15.492 0 82.624 49.058t126.52 103.28 59.386 72.296q-10.328 41.312-69.714 41.312h-645.5v309.84h284.02zm-642.92-286.6v-307.26h-413.12v307.26zm-413.12 384.72h413.12v-309.84h-413.12zm413.12 74.878h-413.12v307.26h413.12zm247.87 495.74q219.47 15.492 322.75 95.534 105.86 80.042 105.86 175.58 0 56.804-36.148 98.116-33.566 38.73-87.788 38.73-43.894 0-87.788-28.402-20.656-90.37-90.37-191.07-67.132-100.7-147.17-170.41zm-353.73 41.312q183.32 69.714 268.53 170.41 87.788 98.116 87.788 196.23 0 67.132-38.73 113.61-36.148 43.894-92.952 43.894t-111.03-51.64q0-108.44-41.312-232.38-38.73-123.94-95.534-224.63zm-614.52 10.328q67.132 160.08 67.132 315 0 121.35-43.894 209.14-41.312 87.788-108.44 129.1-49.058 28.402-98.116 28.402-64.55 0-111.03-41.312-43.894-41.312-43.894-111.03 0-54.222 30.984-98.116 33.566-43.894 87.788-69.714 80.042-43.894 136.85-144.59t49.058-216.89zm286.6 5.164q126.52 95.534 183.32 198.81 59.386 100.7 59.386 193.65 0 87.788-43.894 147.17-43.894 56.804-105.86 56.804-72.296 0-126.52-77.46 28.402-129.1 28.402-258.2t-25.82-253.04z" dominant-baseline="central" fill="#900" aria-label="馬"/>
</svg>
