<?xml version="1.0" encoding="UTF-8"?>
<svg version="1.1" viewBox="0 0 4096 4096" xmlns="http://www.w3.org/2000/svg">
  <title>Ogi Sente Promoted Rook</title>
  <polygon points="2048 249 3309 841 3670 3964 426 3964 787 841" fill="#fff" stroke="#000" stroke-linejoin="round" stroke-width="148"/>
  <path d="m3122.1 3249.6q56.804 25.82 80.042 51.64t23.238 67.132q0 64.55-46.476 100.7-46.476 38.73-160.08 56.804-111.03 20.656-312.42 20.656h-253.04q-123.94 0-188.49-23.238t-90.37-77.46-25.82-160.08v-766.85q0-284.02-25.82-482.83-18.074 10.328-43.894 10.328h-766.85q-183.32 2.582-387.3 36.148l-67.132-131.68q142.01 15.492 343.41 20.656h338.24q46.476-193.65 80.042-433.78h-281.44q-64.55 0-178.16 10.328 136.85 56.804 198.81 131.68 64.55 72.296 64.55 144.59 0 59.386-38.73 100.7-36.148 38.73-90.37 38.73-61.968 0-113.61-54.222 2.582-15.492 2.582-46.476 0-144.59-72.296-309.84-46.476 5.164-160.08 20.656l-67.132-129.1q123.94 15.492 299.51 20.656h144.59q0-203.98-20.656-325.33 198.81 43.894 276.27 72.296 77.46 25.82 77.46 43.894 0 7.746-18.074 20.656l-38.73 25.82v162.67h105.86l61.968-95.534q7.746-12.91 25.82-41.312 20.656-28.402 33.566-41.312 12.91-15.492 23.238-15.492 15.492 0 74.878 49.058t111.03 103.28 51.64 72.296q-10.328 41.312-64.55 41.312h-356.32q260.78 54.222 260.78 85.206 0 12.91-25.82 20.656l-46.476 18.074q-118.77 167.83-253.04 309.84h157.5l61.968-92.952q12.91-18.074 28.402-43.894 18.074-25.82 28.402-38.73 12.91-12.91 23.238-12.91 23.238 0 121.35 90.37 100.7 90.37 113.61 126.52l312.42 123.94h338.24v-271.11h-364.06v56.804q0 12.91-36.148 30.984t-92.952 30.984q-54.222 12.91-105.86 12.91-30.984 0-46.476-15.492-12.91-15.492-12.91-36.148 10.328-87.788 15.492-227.22v-139.43q0-263.36-25.82-428.61 206.56 46.476 286.6 74.878 80.042 25.82 80.042 43.894 0 10.328-18.074 23.238l-43.894 28.402v196.23h335.66l69.714-103.28q10.328-15.492 30.984-46.476t33.566-43.894q12.91-15.492 23.238-15.492 15.492 0 80.042 54.222 67.132 51.64 123.94 111.03 59.386 59.386 59.386 77.46-10.328 41.312-72.296 41.312h-684.23v201.4h338.24l54.222-69.714q12.91-12.91 36.148-41.312t38.73-28.402 80.042 43.894q67.132 43.894 123.94 92.952t56.804 67.132q-30.984 41.312-100.7 54.222v315q-2.582 10.328-59.386 28.402-54.222 18.074-111.03 28.402 15.492 12.91 87.788 74.878 74.878 59.386 129.1 108.44-10.328 41.312-64.55 41.312h-617.1v201.4h312.42l54.222-77.46q12.91-15.492 25.82-33.566t25.82-30.984q12.91-15.492 23.238-15.492 15.492 0 67.132 41.312 54.222 38.73 98.116 85.206 46.476 43.894 46.476 61.968-2.582 41.312-64.55 41.312h-588.7v209.14h358.9l59.386-82.624q10.328-12.91 25.82-36.148 18.074-25.82 28.402-36.148 12.91-12.91 23.238-12.91 15.492 0 72.296 43.894 56.804 41.312 105.86 90.37 49.058 46.476 49.058 64.55-10.328 38.73-67.132 38.73h-655.83v165.25q0 36.148 18.074 49.058 18.074 10.328 77.46 10.328h219.47q152.34 0 188.49-2.582 46.476 0 67.132-23.238 18.074-20.656 43.894-74.878t51.64-123.94h25.82zm-1353-1154.2q15.492 0 82.624 49.058 69.714 46.476 129.1 100.7 59.386 51.64 59.386 69.714-30.984 41.312-100.7 54.222v893.37q0 103.28-23.238 165.25-23.238 64.55-95.534 100.7-69.714 38.73-209.14 49.058-5.164-69.714-12.91-113.61t-25.82-72.296q-23.238-33.566-56.804-51.64-33.566-20.656-100.7-33.566v-33.566q160.08 10.328 203.98 10.328 23.238 0 33.566-10.328 10.328-12.91 10.328-36.148v-299.51h-364.06v180.74q5.164 216.89 15.492 343.41-12.91 36.148-87.788 72.296-72.296 36.148-149.76 36.148-30.984 0-49.058-15.492t-18.074-36.148q18.074-258.2 23.238-565.46v-309.84q0-325.33-33.566-529.31l312.42 131.68h327.91l54.222-74.878q12.91-12.91 25.82-30.984t25.82-30.984 23.238-12.91zm1022.5 103.28h-371.81v224.63h325.33l116.19-149.76h-69.714zm-1492.4 345.99h364.06v-224.63h-364.06zm0 317.59h364.06v-242.71h-364.06z" dominant-baseline="central" fill="#900" aria-label="é¾"/>
</svg>
