<?xml version="1.0" encoding="UTF-8"?>
<svg version="1.1" viewBox="0 0 50 50" xmlns="http://www.w3.org/2000/svg">
  <title>飛</title>
  <path d="m6.1426 49.005h37.715l-6.3481-45.745-12.51-2.2497-12.51 2.2497-6.3475 45.745z" fill="#fff" fill-rule="evenodd" stroke="#000" stroke-width="2"/>
  <g aria-label="飛">
    <path d="m28.422 18.053c0.4 4.4801 1.76 8.2668 5.6801 9.8935 1.2267 0.53334 2.6134 0.77334 3.12-0.10667 0.24-0.48001 0.05333-0.96001-0.64001-1.6534l0.18667-2.8267-0.32-0.05333c-0.21334 0.82668-0.50667 1.6267-0.77334 2.2134-0.16 0.26667-0.26667 0.32-0.66668 0.18667-2.24-0.74668-3.4134-2.9334-3.9467-5.2801 1.2267 0.69334 2.64 1.9467 3.2267 3.0134 1.8667 0.72001 2.64-2.24-1.0133-3.1734 0.80001-0.45334 1.7067-0.96001 2.2667-1.3334 0.53334 0.13334 0.74668 0.05333 0.88001-0.16l-2.32-1.68c-0.4 0.77334-1.0933 2.1067-1.6534 3.0134-0.42667-0.05333-0.93334-0.10667-1.4934-0.10667-0.10667-0.58667-0.16-1.1733-0.21334-1.7334 0.48001-0.08 0.88001-0.24 1.04-0.42667l-2.5067-1.84-1.1733 1.28h-14.107l0.24 0.77334zm8.4801 16.747-0.29334-0.02667c-0.26667 0.88001-0.50667 1.7067-0.80001 2.32-0.13334 0.32-0.29334 0.34667-0.72001 0.18667-2.2667-0.77334-3.4934-3.0134-4.0267-5.5201 1.28 0.80001 2.6934 2.08 3.3067 3.1734 1.92 0.77334 2.72-2.2934-1.2267-3.3867 0.80001-0.53334 1.7067-1.1467 2.24-1.5467 0.58667 0.08 0.82668 0 0.90668-0.24l-2.5334-1.4667c-0.37334 0.77334-0.96001 2.08-1.44 3.0667-0.42667-0.05333-0.88001-0.10667-1.3867-0.16-0.16-0.88001-0.24-1.8134-0.26667-2.6934 0.48001-0.08 0.85334-0.21334 1.04-0.4l-2.5067-1.92-1.1733 1.3067h-2.5867v-7.6534c0.61334-0.10667 0.80001-0.34667 0.85334-0.69334l-3.3334-0.34667v8.6934h-3.28v-4.2401c0.64001-0.10667 0.85334-0.37334 0.93334-0.72001l-1.8934-0.18667c1.0133-0.53334 1.92-1.0667 2.6134-1.5734 0.74668 0.10667 1.2 0 1.3867-0.26667l-3.0134-1.6534c-1.3334 1.6534-4.2134 4-6.8001 5.3601l0.18667 0.34667c1.3867-0.37334 2.8267-0.93334 4.1601-1.52v4.4534h-4.7201l0.24 0.77334h4.4801c-0.05333 4.0801-0.77334 8.4801-4.6667 11.52l0.26667 0.29334c5.5467-2.6667 6.6934-7.4934 6.8268-11.813h3.28v11.84h0.50667c0.90668 0 1.9734-0.56001 1.9734-0.82668v-11.013h2.9067c0.32 5.1734 1.6 9.5468 5.8667 11.307 1.2267 0.58667 2.6134 0.85334 3.1467-0.02667 0.26667-0.45334 0.08-0.96001-0.61334-1.7067z"/>
  </g>
</svg>
