<?xml version="1.0" encoding="UTF-8"?>
<svg version="1.1" viewBox="0 0 4096 4096" xmlns="http://www.w3.org/2000/svg">
  <title>Ogi Sente Silver General</title>
  <polygon points="2048 364 3270 937 3620 3964 476 3964 826 937" fill="#fff" stroke="#000" stroke-linejoin="round" stroke-width="148"/>
  <path d="m1654.7 2206.2q10.02-17.535 27.555-45.09t27.555-40.08q12.525-15.03 22.545-15.03 15.03 0 70.14 50.1 57.615 50.1 105.21 107.72 50.1 55.11 50.1 72.645-10.02 37.575-65.13 37.575h-335.67v716.43l385.77-82.665 7.515 30.06q-303.1 185.37-799.1 425.85-17.535 47.595-60.12 65.13l-170.34-315.63q50.1-7.515 155.31-27.555t162.82-30.06l72.645-15.03v-766.53h-120.24q-100.2 2.505-205.41 35.07l-65.13-125.25q110.22 15.03 265.53 20.04h125.25v-315.63h-170.34l-12.525-47.595q-117.74 112.72-220.44 182.86l-25.05-20.04q135.27-170.34 260.52-455.91 52.605-120.24 87.675-250.5 35.07-132.76 37.575-232.96 197.9 67.635 275.55 105.21 80.16 35.07 80.16 52.605 0 7.515-22.545 17.535l-45.09 20.04q205.41 50.1 298.1 132.76 95.19 80.16 95.19 162.82 0 55.11-37.575 92.685t-90.18 37.575q-50.1 0-92.685-32.565-27.555-70.14-85.17-157.82-57.615-90.18-127.76-172.84-137.78 265.53-363.22 493.48h378.26l57.615-90.18q10.02-15.03 27.555-40.08t27.555-37.575q12.525-12.525 22.545-12.525 15.03 0 70.14 47.595 55.11 45.09 102.7 97.695 47.595 50.1 47.595 67.635-10.02 40.08-65.13 40.08h-265.53v315.63h40.08zm1129.8-916.83q10.02-12.525 22.545-32.565 15.03-22.545 25.05-32.565t20.04-10.02q15.03 0 80.16 45.09t122.74 95.19 57.615 67.635q-27.555 35.07-95.19 45.09v889.28q0 10.02-27.555 27.555t-70.14 30.06q132.76 100.2 182.86 147.8 52.605 47.595 52.605 65.13 0 12.525-27.555 12.525h-52.605q-220.44 125.25-395.79 185.37 192.88 270.54 541.08 438.38l-2.505 27.555q-85.17 12.525-150.3 75.15-62.625 62.625-97.695 165.33-217.94-185.37-348.2-433.36-290.58 190.38-653.8 385.77-15.03 50.1-60.12 62.625l-157.82-318.14q162.82-27.555 253-47.595v-1427.8q0-315.63-32.565-513.52l310.62 125.25h453.4zm-30.06 511.02v-363.22h-503.5v363.22zm0 72.645h-503.5v378.26h503.5zm-150.3 1182.4q-135.27-293.08-182.86-731.46h-170.34v806.61zm298.1-636.27q-60.12 10.02-102.7 10.02h-45.09v-105.21h-293.08q57.615 253 180.36 443.38 137.78-150.3 260.52-348.2zm-1089.7 92.685q127.76 27.555 127.76 55.11 0 10.02-27.555 25.05l-45.09 20.04q-120.24 245.49-230.46 385.77l-40.08-15.03 2.505-15.03q40.08-227.96 40.08-413.32 0-42.585-5.01-102.7zm-779.06-25.05q120.24 95.19 175.35 197.9 57.615 100.2 57.615 190.38 0 75.15-35.07 125.25t-85.17 50.1-97.695-57.615q5.01-70.14 5.01-105.21 0-97.695-15.03-200.4-15.03-105.21-37.575-190.38z" dominant-baseline="central" aria-label="銀"/>
</svg>
