<?xml version="1.0" encoding="UTF-8"?>
<svg version="1.1" viewBox="0 0 50 50" xmlns="http://www.w3.org/2000/svg">
  <title>King</title>
  <g stroke="#000">
    <path d="m6.1426 49.005h37.715l-6.3481-45.745-12.51-2.2497-12.51 2.2497-6.3475 45.745z" fill="#fff" fill-rule="evenodd" stroke-width="2"/>
    <g stroke-width="1.2442">
      <path d="m25.027 18.269v-4.6468" fill="none" stroke-linecap="round"/>
      <path d="m22.943 15.273h4.168" fill="none" stroke-linecap="round"/>
      <path d="m25.027 29.304s3.7512-6.1903 2.5008-8.6664c0 0-0.8336-2.0634-2.5008-2.0634s-2.5008 2.0634-2.5008 2.0634c-1.2504 2.4761 2.5008 8.6664 2.5008 8.6664" fill="#fff" fill-rule="evenodd"/>
      <path d="m15.857 39.208c4.5848 2.8888 12.921 2.8888 17.506 0v-5.7776s7.5024-3.7142 5.0016-8.6664c-3.3344-5.3649-11.254-2.8888-13.338 3.3015v2.8888-2.8888c-2.9176-6.1903-10.837-8.6664-13.338-3.3015-2.5008 4.9522 4.168 8.2537 4.168 8.2537z" fill="#fff" fill-rule="evenodd" stroke-linecap="round" stroke-linejoin="round"/>
    </g>
  </g>
  <g fill="none" stroke="#000" stroke-linecap="round" stroke-linejoin="round" stroke-width="1.2442">
    <path d="m15.857 33.431c4.5848-2.4761 12.921-2.4761 17.506 0"/>
    <path d="m15.857 36.319c4.5848-2.4761 12.921-2.4761 17.506 0"/>
    <path d="m15.857 39.208c4.5848-2.4761 12.921-2.4761 17.506 0"/>
  </g>
</svg>
