<?xml version="1.0" encoding="UTF-8"?>
<svg version="1.1" viewBox="0 0 50 50" xml:space="preserve" xmlns="http://www.w3.org/2000/svg">
  <title>Promoted Princess</title><g stroke="#900">
  <g fill="#fff" fill-rule="evenodd">
    <path d="m6.1428 49.005h37.715l-6.3481-45.745-12.51-2.2497-12.51 2.2497-6.3475 45.745z" stroke-width="2"/>
    <path d="m36.565 38.933c-2.9-0.83296-8.6649 0.36907-11.565-1.7133-2.9 2.0824-8.6649 0.88036-11.565 1.7133 0 0-1.41 0.46389-2.57 1.7133 0.58 0.83295 1.41 0.84481 2.57 0.42833 2.9-0.83295 8.6649 0.39277 11.565-0.85666 2.9 1.2494 8.6649 0.0237 11.565 0.85666 1.16 0.41648 1.99 0.40462 2.57-0.42833-1.16-1.6659-2.57-1.7133-2.57-1.7133z" stroke-linejoin="round" stroke-width="1.285"/>
    <path d="m31.425 35.507c-2.1416 2.1416-10.708 2.1416-12.85 0-0.42833-1.285 0-1.7133 0-1.7133h12.85s0.42833 0.42833 0 1.7133z" stroke-linejoin="round" stroke-width="1.285"/>
    </g>
    <path d="m31.425 33.794h-12.85" fill="none" stroke-width="1.285"/>
    <path d="m23.153 14.627c6.8849 0.65571 10.819 5.2456 10.491 19.015h-15.081c0-5.9014 6.5571-4.2621 5.2456-13.77" fill="#fff" fill-rule="evenodd" stroke-linecap="round" stroke-width=".98356"/><path d="m24.465 19.873c0.25209 1.9089-3.6411 4.8317-5.2456 5.9014-1.9671 1.3114-1.8486 2.8477-3.2785 2.6228-0.68306-0.619 0.9268-1.9917 0-1.9671-0.65571 0 0.12284 0.80765-0.65571 1.3114-0.65571 0-2.6249 0.65571-2.6228-2.6228 0-1.3114 3.9342-7.8685 3.9342-7.8685s1.2366-1.2472 1.3114-2.295c-0.47607-0.65201-0.32785-1.3114-0.32785-1.9671 0.65571-0.65571 1.9671 1.6393 1.9671 1.6393h1.3114s0.51262-1.3061 1.6393-1.9671c0.65571 0 0.65571 1.9671 0.65571 1.9671" fill="#fff" fill-rule="evenodd" stroke-linecap="round" stroke-linejoin="round" stroke-width=".98356"/></g><g fill="none" stroke="#900" stroke-linecap="round"><circle cx="14.629" cy="24.791" r=".32785" stroke-linejoin="round" stroke-width=".98356"/><ellipse transform="rotate(30)" cx="24.909" cy="6.673" rx=".32785" ry=".98356" stroke-linejoin="round" stroke-width=".98356"/>
  <path d="m32.989 33.643c0.65571-13.114-3.6064-18.032-7.8685-18.688" stroke-width=".65571"/>
</g></svg>
