<?xml version="1.0" encoding="UTF-8"?>
<svg version="1.1" viewBox="0 0 50 50" xmlns="http://www.w3.org/2000/svg">
  <title>Queen</title>
  <g fill="#fff" fill-rule="evenodd" stroke="#000">
    <path d="m6.1426 49.005h37.715l-6.3481-45.745-12.51-2.2497-12.51 2.2497-6.3475 45.745z" stroke-width="2"/>
    <g stroke-linecap="round" stroke-linejoin="round" stroke-width="1.2412">
      <path d="m13.209 18.964a1.644 1.644 0 0 1-3.288 0 1.644 1.644 0 1 1 3.288 0z"/>
      <path d="m26.644 15.265a1.644 1.644 0 0 1-3.288 0 1.644 1.644 0 1 1 3.288 0z"/>
      <path d="m39.909 18.964a1.644 1.644 0 0 1-3.288 0 1.644 1.644 0 1 1 3.288 0z"/>
      <path d="m19.657 16.087a1.644 1.644 0 0 1-3.288 0 1.644 1.644 0 1 1 3.288 0z"/>
      <path d="m33.631 16.498a1.644 1.644 0 0 1-3.288 0 1.644 1.644 0 1 1 3.288 0z"/>
    </g>
    <path d="m13.903 30.472c6.987-1.233 17.262-1.233 22.194 0l1.644-9.864-5.754 9.042v-11.508l-4.521 11.097-2.466-12.33-2.466 12.33-4.521-11.508v11.919l-5.754-9.042z" stroke-linejoin="round" stroke-width="1.2412"/>
    <path d="m13.903 30.472c0 1.644 1.233 1.644 2.055 3.288 0.822 1.233 0.822 0.822 0.411 2.877-1.233 0.822-1.233 2.055-1.233 2.055-1.233 1.233 0.411 2.055 0.411 2.055 5.343 0.822 13.563 0.822 18.906 0 0 0 1.233-0.822 0-2.055 0 0 0.411-1.233-0.822-2.055-0.411-2.055-0.411-1.644 0.411-2.877 0.822-1.644 2.055-1.644 2.055-3.288-6.987-1.233-15.207-1.233-22.194 0z" stroke-linejoin="round" stroke-width="1.2412"/>
  </g>
  <path d="m15.958 33.76c2.877-0.822 15.207-0.822 18.084 0" fill="none" stroke="#000" stroke-linecap="round" stroke-linejoin="round" stroke-width="1.2412"/>
  <path d="m16.369 36.637c4.932-0.822 12.33-0.822 17.262 0" fill="none" stroke="#000" stroke-linecap="round" stroke-linejoin="round" stroke-width="1.2412"/>
</svg>
