<?xml version="1.0" encoding="UTF-8"?>
<svg version="1.1" viewBox="0 0 4096 4096" xmlns="http://www.w3.org/2000/svg">
  <title>Ogi Sente Bishop</title>
  <polygon points="2048 249 3309 841 3670 3964 426 3964 787 841" fill="#fff" stroke="#000" stroke-linejoin="round" stroke-width="148"/>
  <path d="m1994.7 2165.9-122.84-1.48q-50.319 0-50.319-50.319t50.319-50.319h122.84v-127.28q0-51.799 53.279-51.799 51.799 0 51.799 51.799v127.28h127.28q48.839 0 48.839 50.319t-48.839 50.319h-127.28v121.36q0 53.279-51.799 53.279-53.279 0-53.279-53.279zm53.279 855.43q100.64 0 195.36-16.28 96.199-17.76 185-41.439-173.16-45.879-380.36-45.879-210.16 0-380.36 45.879 85.839 23.68 182.04 41.439 96.199 16.28 198.32 16.28zm0-1611.7q100.64 0 100.64-100.64t-100.64-100.64-100.64 100.64 100.64 100.64zm0 1404.5q173.16 0 333 34.04l-71.039-182.04q-130.24-20.72-261.96-20.72-134.68 0-263.44 20.72l-71.039 182.04q158.36-34.04 334.48-34.04zm0-269.36q143.56 0 275.28 22.2 145.04-51.799 210.16-161.32 56.239-94.719 56.239-208.68 0-68.079-34.04-149.48-34.04-82.879-111-149.48-87.319-72.519-190.92-158.36-103.6-87.319-205.72-202.76-103.6 115.44-207.2 202.76-103.6 85.839-189.44 158.36-78.439 66.599-112.48 149.48-32.56 81.399-32.56 149.48 0 113.96 54.759 208.68 63.639 109.52 211.64 161.32 130.24-22.2 275.28-22.2zm-53.279 557.95h-47.359q-82.879 133.2-158.36 167.24-35.52 17.76-78.439 32.56-42.92 14.8-99.159 14.8-10.36 0-158.36-23.68-71.039-10.36-112.48-22.2-41.439-11.84-65.119-14.8-84.359-10.36-196.84 8.8799-68.079 11.84-127.28 42.919l71.039 115.44q17.76-17.76 45.879-23.68 29.6-4.4399 53.279-10.36 62.159-10.36 118.4-2.96 19.24 4.4399 75.479 10.36 56.239 7.3999 149.48 22.2 111 16.28 150.96 16.28 155.4 0 238.28-59.199 50.319-38.48 94.719-108.04 45.879-68.079 45.879-165.76zm53.279 167.24q-20.72 84.359-50.319 116.92t-78.439 68.079q-53.279 37-125.8 62.159-72.519 26.64-161.32 13.32l-415.87-57.719q-25.16-2.96-45.879 0-19.24 2.9599-37 2.9599-31.08 0-79.919 13.32-47.359 14.8-73.999 41.44l-143.56-235.32q26.64-29.6 47.359-41.439 20.72-11.84 48.839-25.16 85.839-39.96 183.52-48.839 41.44-2.9599 81.399-1.48 39.96 1.48 82.879-2.9599 79.919 13.32 159.84 25.16 81.399 10.36 162.8 22.2 88.799 0 119.88-17.76 16.28-8.8799 51.799-32.56t71.039-69.559q-78.439-8.8798-159.84-29.6-81.399-22.2-143.56-45.879l153.92-381.83q-115.44-66.599-161.32-106.56-45.879-41.44-72.519-94.719-38.48-68.079-50.319-131.72-10.36-63.639-8.8799-113.96 1.48-88.799 41.44-195.36 41.439-108.04 153.92-192.4 93.239-71.039 182.04-146.52 88.799-75.479 176.12-176.12-109.52-56.239-109.52-179.08 0-82.879 57.719-142.08 59.199-59.199 143.56-59.199 82.879 0 142.08 59.199t59.199 142.08q0 121.36-109.52 179.08 85.839 100.64 173.16 176.12 88.799 75.479 185 146.52 111 84.359 150.96 192.4 39.959 106.56 42.919 195.36 0 50.319-10.36 113.96-10.36 63.639-47.359 131.72-29.6 53.279-75.479 94.719-44.4 39.96-158.36 106.56l153.92 381.83q-65.119 23.68-146.52 45.879-81.399 20.72-156.88 29.6 34.04 45.879 69.559 69.559t53.279 32.56q31.08 17.76 119.88 17.76 79.919-11.84 159.84-22.2 81.399-11.84 162.8-25.16 39.959 4.4399 79.919 2.9599 41.44-1.4799 84.359 1.48 94.719 8.8799 183.52 48.839 26.64 13.32 47.359 25.16 22.2 11.84 48.839 41.439l-145.04 235.32q-26.64-26.64-75.479-41.44-47.359-13.32-76.959-13.32-19.24 0-39.959-2.9599-19.24-2.96-44.4 0l-414.39 57.719q-88.799 13.32-165.76-11.84-75.479-25.16-124.32-66.599-48.839-39.959-78.439-69.559-28.12-28.12-47.359-112.48zm51.799-167.24q0 97.679 44.399 165.76 45.879 69.559 97.679 108.04 81.399 59.199 238.28 59.199 38.48 0 150.96-16.28 91.759-14.8 148-22.2 56.239-5.92 75.479-10.36 56.239-7.3999 118.4 2.96 23.68 5.9199 51.799 10.36 29.6 5.9199 48.839 23.68l71.039-115.44q-60.679-31.08-128.76-42.919-112.48-19.24-196.84-8.8799-25.16 2.96-66.599 14.8-39.96 11.84-109.52 22.2-149.48 23.68-158.36 23.68-57.719 0-100.64-14.8-42.92-14.8-76.959-32.56-78.439-35.52-159.84-167.24z" dominant-baseline="central" aria-label="♗"/>
</svg>
