<?xml version="1.0" encoding="UTF-8"?>
<svg version="1.1" viewBox="0 0 4096 4096" xmlns="http://www.w3.org/2000/svg">
  <title>Ogi Sente Jeweled King</title>
  <polygon points="2048 134 3348 744 3720 3964 376 3964 748 744" fill="#fff" stroke="#000" stroke-linejoin="round" stroke-width="148"/>
  <path d="m1285.8 3014q289.64-73.172 768.3-73.172 469.52 0 757.63 70.123l38.11-224.09q-306.41-80.794-801.84-80.794-498.48 0-800.32 82.318zm-92.989 92.989-50.306-285.07q-1.5244 0-4.5732-6.0976-7.6221-10.671-44.208-27.44-35.062-18.293-82.318-60.976-67.074-56.403-105.18-91.465-36.586-35.062-67.074-76.221-92.989-128.05-103.66-309.46-15.244-175.31 141.77-349.09 158.54-173.78 428.36-163.11 100.61 6.0977 236.28 48.781 44.208 18.293 89.94 36.586 47.257 16.769 92.989 35.062 24.391 12.195 42.684 24.391-7.6221-32.013-7.6221-64.025 0-118.9 83.843-202.75 85.367-83.843 204.27-85.367 118.9 0 202.75 85.367 83.843 83.843 83.843 201.22 0 24.391-6.0976 64.025 21.342-13.72 41.159-22.866 70.123-30.488 184.45-71.647 131.1-44.208 236.28-50.306 269.82-12.195 426.84 163.11 153.97 173.78 143.29 349.09-12.195 181.41-105.18 309.46-30.488 41.159-68.599 77.745-38.11 35.062-102.14 89.94-50.306 42.684-85.367 60.977-35.062 16.769-41.159 27.44-1.5244 3.0488-3.0488 4.5732t-1.5244 3.0488l-48.781 286.59 100.61 376.53q-76.221 68.599-341.47 112.81-265.25 44.208-612.81 44.208-353.66 0-621.96-47.257-268.3-45.732-336.9-115.86zm1647.9 178.36-45.732-175.31q-301.83-67.074-746.96-67.074-443.6 0-745.44 67.074l-48.781 176.83q291.16-85.367 795.74-85.367 501.53 0 791.17 83.843zm39.635 143.29q-294.21-118.9-826.23-118.9-551.84 0-835.38 121.95 268.3 106.71 830.81 106.71 268.3 0 489.34-30.488 221.04-28.964 341.47-79.27zm-885.68-826.23q-1.5244-59.452-4.5732-117.38-3.0489-59.452-22.866-131.1-62.501-204.27-189.03-329.27-65.55-64.025-201.22-118.9-155.49-60.977-294.21-60.977-240.86 0-356.71 172.26-65.55 91.465-65.55 228.66 0 149.39 73.172 245.43 44.208 56.403 112.81 112.81 68.599 56.403 128.05 102.14 266.77-96.038 820.13-103.66zm53.354-283.54q10.671-42.684 18.293-59.452 15.244-59.452 35.062-100.61 9.1465-25.915 25.915-59.452 18.293-35.062 38.11-79.27 12.195-25.915 25.915-62.501 13.72-38.11 27.44-74.696 12.195-30.488 12.195-65.55 0-74.696-53.354-126.53-53.354-53.354-129.58-53.354-181.41 0-181.41 181.41 0 35.062 12.195 65.55 33.537 99.087 51.83 137.2 19.817 44.208 36.586 79.27 16.768 33.537 28.964 59.452 19.817 50.306 33.537 100.61 3.0489 9.1464 18.293 57.928zm51.83 283.54q262.2 3.0488 480.19 32.013 217.99 27.44 341.47 70.123 57.928-45.732 126.53-100.61 68.599-56.403 114.33-114.33 73.172-92.989 73.172-245.43 0-137.2-65.55-228.66-117.38-170.73-356.71-170.73-143.3 0-294.21 59.452-132.62 53.354-201.22 118.9-128.05 128.05-189.03 329.27-21.342 71.648-25.915 131.1-3.0488 57.928-3.0488 118.9zm1.5244-1076.2h-108.23v-199.7h-126.53q-51.83 0-51.83-50.306v-1.5244q0-50.306 51.83-50.306h126.53v-129.58q0-53.354 54.879-53.354 53.354 0 53.354 53.354v129.58h131.1q50.306 0 50.306 50.306v1.5244q0 50.306-50.306 50.306l-129.58 1.5245z" dominant-baseline="central" aria-label="♔"/>
</svg>
