<?xml version="1.0" encoding="UTF-8"?>
<svg version="1.1" viewBox="0 0 4096 4096" xmlns="http://www.w3.org/2000/svg">
  <title>Ogi Sente Pawn</title>
  <polygon points="2048 594 3192 1130 3519 3964 577 3964 904 1130" fill="#fff" stroke="#000" stroke-linejoin="round" stroke-width="148"/>
  <path d="m2048 3325.3h661.46q28.29-96.996 28.29-189.95 0-210.16-117.2-381.25-115.86-171.09-299.07-251.92-88.913-6.7359-88.913-96.996 0-71.4 90.26-105.08 125.29-87.566 125.29-231.71 0-103.73-70.053-181.87-70.053-78.136-169.74-90.26-80.83-6.7359-80.83-91.608 0-37.721 29.638-70.053 72.747-56.581 72.747-148.19 0-75.441-53.887-129.33-53.887-53.887-127.98-53.887-76.789 0-130.68 53.887-52.54 53.887-52.54 129.33 0 90.26 72.747 148.19 29.638 29.638 29.638 70.053 0 84.872-79.483 91.608-101.04 12.124-171.09 90.26-68.706 78.136-68.706 181.87 0 144.15 125.29 231.71 90.26 35.026 90.26 105.08 0 90.26-90.26 96.996-183.21 80.83-299.07 251.92-115.86 171.09-115.86 381.25 0 99.69 28.29 189.95zm0 91.607h-727.47q-53.887-134.72-53.887-281.56 0-249.23 141.45-447.26 141.45-198.03 363.74-282.91-95.649-44.457-156.27-133.37-59.275-90.26-59.275-203.42 0-141.45 94.302-245.18 94.302-103.73 231.71-119.9-109.12-82.177-109.12-216.89 0-113.16 79.483-193.99 80.83-80.83 195.34-80.83 113.16 0 193.99 80.83 80.83 80.83 80.83 193.99 0 134.72-109.12 216.89 137.41 16.166 231.71 119.9 94.302 103.73 94.302 245.18 0 113.16-61.97 203.42-60.623 88.913-154.92 133.37 222.28 84.872 363.74 282.91 141.45 198.03 141.45 447.26 0 145.49-52.54 281.56z" dominant-baseline="central" aria-label="♙"/>
</svg>
