<?xml version="1.0" encoding="UTF-8"?>
<svg version="1.1" viewBox="0 0 4096 4096" xmlns="http://www.w3.org/2000/svg">
  <title>Ogi Sente Promoted Princess</title>

  <polygon points="2048 134 3348 744 3720 3964 376 3964 748 744" fill="#fff" stroke="#000" stroke-linejoin="round" stroke-width="148"/>

  <g transform="translate(-4432 225.16)">
    <g transform="translate(4384.1 -64.978)" fill="#fff">
      <ellipse cx="2161.5" cy="1683.9" rx="352.73" ry="312.63"/>
      <ellipse cx="2154.1" cy="2099.6" rx="182.51" ry="815.95"/>
      <ellipse cx="2279.3" cy="2687.3" rx="524.6" ry="245.52"/>
      <ellipse cx="2161.5" cy="2853.4" rx="456.67" ry="103.94"/>
      <ellipse cx="2000.3" cy="3178.3" rx="117.85" ry="107.21"/>
      <ellipse cx="2326" cy="3177.5" rx="117.85" ry="107.21"/>
      <ellipse cx="1799.8" cy="1217.4" rx="145.68" ry="239.79"/>
      <ellipse cx="1556.7" cy="1673.3" rx="487.77" ry="473.86"/>
      <ellipse cx="2062.5" cy="1509.6" rx="485.32" ry="327.36"/>
      <ellipse cx="1197.4" cy="1991.6" rx="269.26" ry="260.25"/>
      <ellipse cx="998.53" cy="2269.1" rx="239.79" ry="292.17"/>
      <ellipse cx="2776.9" cy="2574.3" rx="147.31" ry="94.12"/>
      <ellipse cx="2034.6" cy="2303.4" rx="147.31" ry="183.32"/>
      <circle cx="1167.9" cy="2573.5" r="76.11"/>
      <rect x="1987.2" y="2774.8" width="349.46" height="376.47" ry="90.84"/>
      <rect x="948.6" y="3157.9" width="242.25" height="215.24" ry="107.21"/>
      <rect x="1023.1" y="3157.9" width="967.36" height="215.24" ry="90.84"/>
      <rect x="2329.3" y="3151.3" width="980.46" height="215.24" ry="90.84"/>
      <rect x="3139.5" y="3164.4" width="228.34" height="215.24" ry="107.21"/>
      <rect x="2492.9" y="1444.1" width="124.4" height="1023" ry="40.1"/>
      <rect x="2264.6" y="1765.7" width="260.25" height="682.55" ry="40.1"/>
      <rect x="2578.9" y="1535" width="150.59" height="946.08" ry="40.1"/>
      <rect x="2683.6" y="1683.9" width="149.77" height="790.58" ry="40.1"/>
      <rect x="2774.5" y="1918" width="148.13" height="554.88" ry="40.1"/>
      <rect x="2870.2" y="2191.3" width="124.4" height="280.71" ry="40.1"/>
      <path d="m1447.7 1254.4a135.86 241.43 46.92 0 1-185.59-198.45 135.86 241.43 46.92 0 1 185.59 198.45z"/>
      <path d="m1022.7 2401.6 577.85-864.93a79.39 79.39-56.25 0 1 110.11-21.9l101.4 67.74a79.39 79.39-56.25 0 1 21.91 110.11l-577.86 864.92a79.39 79.39-56.25 0 1-110.11 21.91l-101.4-67.74a79.39 79.39-56.25 0 1-21.9-110.11z"/>
      <path d="m1449.9 1909.6 240.47 143.24a113.76 113.76 30.78 0 1 39.52 155.95l-21.36 35.86a113.76 113.76 30.78 0 1-155.95 39.51l-240.47-143.23a113.76 113.76 30.78 0 1-39.52-155.95l21.36-35.86a113.76 113.76 30.78 0 1 155.95-39.52z"/>
    </g>

    <g transform="matrix(.81829 0 0 .81829 1201.2 479.9)">
      <g transform="translate(4403.1,-73.986)" fill="#900">
        <ellipse cx="2128" cy="1466" rx="431" ry="382"/>
        <ellipse cx="2119" cy="1974" rx="223" ry="997"/>
        <ellipse cx="2272" cy="2692" rx="641" ry="300"/>
        <ellipse cx="2128" cy="2895" rx="558" ry="127"/>
        <ellipse cx="1931" cy="3292" rx="144" ry="131"/>
        <ellipse cx="2329" cy="3291" rx="144" ry="131"/>
        <rect x="1915" y="2799" width="427" height="460" ry="111"/>
        <rect x="646" y="3267" width="296" height="263" ry="131"/>
        <rect x="737" y="3267" width="1182" height="263" ry="111"/>
        <rect x="2333" y="3259" width="1198" height="263" ry="111"/>
        <rect x="3323" y="3275" width="279" height="263" ry="131"/>
        <circle cx="914" cy="2553" r="93"/>
        <ellipse cx="1686" cy="896" rx="178" ry="293"/>
        <ellipse cx="1389" cy="1453" rx="596" ry="579"/>
        <ellipse cx="2007" cy="1253" rx="593" ry="400"/>
        <ellipse cx="950" cy="1842" rx="329" ry="318"/>
        <ellipse cx="707" cy="2181" rx="293" ry="357"/>
        <ellipse transform="matrix(.62544 -.78027 .6688 .74344 0 0)" cx="305" cy="1423" rx="166" ry="295"/>
        <rect transform="rotate(-56.253)" x="-1636" y="1914" width="1465" height="343" ry="97"/>
        <rect transform="matrix(.86201 -.50689 .51346 .85812 0 0)" x="-188" y="2204" width="620" height="329" ry="139"/>
        <ellipse cx="2880" cy="2554" rx="180" ry="115"/>
        <ellipse cx="1973" cy="2223" rx="180" ry="224"/>
        <rect x="2533" y="1173" width="152" height="1250" ry="49"/>
        <rect x="2254" y="1566" width="318" height="834" ry="49"/>
        <rect x="2638" y="1284" width="184" height="1156" ry="49"/>
        <rect x="2766" y="1466" width="183" height="966" ry="49"/>
        <rect x="2877" y="1752" width="181" height="678" ry="49"/>
        <rect x="2994" y="2086" width="152" height="343" ry="49"/>
      </g>

      <path d="m5600.4 1179.5c-8.004 0-16.824 1.4168-26.457 4.25-133.74 48.73-226.1 138.26-277.1 268.59-7.933 37.399 5.6659 62.9 40.799 76.5 35.132 11.332 58.932-1.1345 71.398-37.4 9.067-19.267 15.867-31.734 20.4-37.4 12.466 10.2 28.9 17 49.299 20.4 69.135 11.331 109.37-19.267 120.7-91.799 3.4-24.933-2.267-48.732-17-71.398l0.01 0.01c6.799-3.4 13.033-6.2334 18.699-8.5 5.666-3.4 11.899-6.7993 18.699-10.199 33.999-13.6 44.2-38.533 30.6-74.799-9.3502-25.499-26.031-38.25-50.043-38.25z" fill="#fff"/>
      <path d="m5306.6 372.06c-11.336 175.66 13.03 346.22 73.098 511.69-19.267 19.266-35.134 36.265-47.6 50.998-10.2 12.466-18.7 22.666-25.5 30.6-6.8 6.799-15.3 17-25.5 30.6-13.599 16.999-23.232 30.031-28.898 39.098-4.533 7.9329-14.165 23.234-28.898 45.9-21.533 32.867-35.7 66.867-42.5 102-7.9334 50.993-11.9 96.89-11.9 137.69-9.07 94.07-82.74 231.2-221 411.4-117.86 156.4-176.79 282.19-176.79 377.39 0 66.86 8.5 129.19 25.5 186.99 18.135 57.8 56.101 115.6 113.9 173.4 28.32 27.2 74.222 52.7 137.69 76.5 37.393 2.267 79.891-3.4 127.49-17 35.13 64.599 84.432 95.199 147.9 91.799 40.799-2.268 71.963-14.166 93.496-35.699 15.867-15.865 35.133-45.33 57.799-88.396 43.066-81.592 68.567-127.49 76.5-137.69 107.67-163.2 281.63-287.87 521.89-374 49.859-21.532 95.758-49.299 137.69-83.299 4.532 64.6-7.9344 136.57-37.4 215.9-28.338 79.33-58.865 173.2-106.95 283.71l0.3203-0.01c8e-4 0 0 6e-4 0 0l-0.3223 0.01-203.12 503.91c54.69 20.833 117.84 41.016 189.45 60.547 71.61 18.229 141.93 31.25 210.94 39.062-31.25 40.365-62.5 70.964-93.75 91.797s-54.036 35.156-68.359 42.969c-27.34 15.625-80.072 23.438-158.2 23.438-71.61-10.417-143.23-20.182-214.84-29.297-70.31-10.417-140.63-21.484-210.94-33.203-37.764 3.9063-74.225 5.2083-109.38 3.9062s-70.961-0.6509-107.42 1.9532c-85.94 7.8129-166.67 29.297-242.19 64.453-24.739 11.718-46.224 22.786-64.453 33.203s-39.063 28.646-62.5 54.688l189.45 310.55c23.437-23.438 55.989-41.666 97.656-54.688 42.969-11.719 78.127-17.578 105.47-17.578 15.625 0 31.901-1.3022 48.828-3.9063 18.229-2.6042 38.412-2.6042 60.547 0l548.83 76.172c78.12 11.719 149.09 5.8588 212.89-17.578 63.81-22.135 119.15-49.479 166.02-82.031 42.972-31.25 77.479-61.198 103.52-89.844 26.01-28.616 48.121-79.981 66.338-154.06 16.927 74.215 37.76 123.69 62.498 148.43 26.045 26.042 60.551 56.641 103.52 91.797 42.97 36.459 97.655 65.758 164.06 87.893 67.71 22.135 140.62 27.344 218.75 15.625l546.88-76.172c22.135-2.6042 41.669-2.6042 58.596 0 18.229 2.6041 35.805 3.9062 52.732 3.9062 26.04 0 59.894 5.8572 101.56 17.576 42.969 13.021 76.172 31.252 99.609 54.69l191.41-310.55c-23.437-26.042-44.922-44.27-64.453-54.688-18.229-10.417-39.063-21.484-62.5-33.203-78.13-35.156-158.86-56.64-242.19-64.453-37.761-2.6041-74.871-3.2552-111.33-1.9531-35.157 1.3021-70.315 0-105.47-3.9063-71.61 11.719-143.23 22.786-214.84 33.203-70.31 9.115-140.63 18.88-210.94 29.297-78.123 0-130.86-7.8125-158.2-23.438-15.625-7.8129-39.06-22.136-70.31-42.969s-61.851-51.432-91.799-91.797c66.41-7.812 135.42-20.834 207.03-39.062 71.61-19.531 136.07-39.714 193.36-60.547l449.64-539.14h-0.207c0.1052-0.081 0.2429-0.1372 0.2109-0.291h0.029c-11.333-179.06-39.666-349.62-84.998-511.69-39.66-139.4-92.928-271.43-159.79-396.09-65.73-124.67-136-231.2-210.8-319.6-106.53-125.8-235.73-228.94-387.59-309.4-151.86-80.459-316.76-126.36-494.69-137.69l0.1035-0.23047c-53.27-104.26-125.24-188.12-215.9-251.59-109.93 79.33-183.6 183.03-221 311.09-153-172.27-342.26-298.64-567.79-379.1zm117.28 178.79c124.66 61.19 235.72 141.66 333.19 241.39-24.936 12.466-61.768 31.165-110.5 56.098-38.533 19.267-47.599 45.9-27.199 79.9 20.399 33.999 47.032 39.664 79.898 16.998 51.002-27.199 99.733-48.165 146.2-62.898l-3.4004 13.6c0 40.799 18.134 61.765 54.4 62.898 38.532 4.533 58.931-13.031 61.197-52.697 6.8-120.13 53.268-225.53 139.4-316.19 109.92 106.54 163.19 234.6 159.79 384.2-4.533 40.799 14.167 61.197 56.1 61.197 36.266 0 55.532-20.398 57.799-61.197 1.133-53.27-3.3996-107.67-13.6-163.2 152.99 26.07 299.76 81.604 440.29 166.6 140.53 84.99 251.6 188.69 333.19 311.09 54.401 74.8 104.83 163.76 151.3 266.89 46.46 102 88.958 225.53 127.49 370.59 39.666 150.72 71.351 264.34 94.664 408.37l-1243.8-87.053c38.532-79.34 62.898-153.57 73.098-222.7 11.334-86.14 5.1007-165.47-18.699-238 72.534-105.4 108.8-222.13 108.8-350.19-4.533-37.399-24.933-56.1-61.199-56.1-48.732 0-67.999 19.267-57.799 57.799 3.4 61.193-2.267 112.76-17 154.69-28.336 74.8-68.567 137.7-120.7 188.7-37.401 36.268-80.469 66.302-129.2 90.102-47.602 22.666-91.232 41.933-130.9 57.799-49.868 20.399-89.534 40.232-119 59.498-29.467 19.266-54.399 36.267-74.799 51-35.138 26.065-75.375 60.06-120.7 102-45.326 41.94-87.824 96.336-127.49 163.2-34 57.792-58.933 103.69-74.799 137.69-15.866 33.999-30.032 57.233-42.498 69.699-41.935 41.934-71.971 30.6-90.104-34-2.267 4.532 7.3674-7.9325 28.9-37.398 17-24.933 30.599-48.732 40.799-71.398 18.133-49.865 27.199-78.198 27.199-84.998-2.267-31.734-17.565-47.6-45.898-47.6-19.266-1e-4 -43.632 32.298-73.098 96.898-14.733 35.132-35.7 58.932-62.9 71.398-26.066 12.466-47.032 18.699-62.898 18.699-48.73 4.534-99.167-19.832-151.3-73.098-34-30.593-56.101-73.091-66.301-127.49-10.2-55.535-10.2-102.57 0-141.1 14.733-63.468 36.267-115.6 64.6-156.4 28.326-40.8 69.125-102 122.39-183.6 55.535-85 100.87-156.97 136-215.9 36.266-58.94 59.499-121.84 69.699-188.7-1.1333-21.533-2.833-40.799-5.0996-57.799-1.133-18.133 3.3996-41.366 13.6-69.699 9.066-22.666 23.232-51.566 42.498-86.699 20.399-35.133 34.567-57.798 42.5-67.998 7.933-11.333 23.798-28.899 47.598-52.699 14.733 29.466 26.067 49.864 34 61.197 21.533 32.866 48.166 36.833 79.898 11.9 28.333-22.667 32.866-48.733 13.6-78.199-72.533-140.53-115.6-289.56-129.2-447.09zm1107.6 1850.8c115.88 0 781.81 31.222 896.4 49.451l-237.88 272.39c-140.62-29.948-506.17-99.188-658.52-99.188-154.95 0-302.09 14.974-441.41 44.922l93.75-240.23c113.29-18.229 229.17-27.344 347.66-27.344zm0 359.43c182.29 0 349.6 20.184 501.95 60.549-78.13 20.833-159.51 39.062-244.14 54.688-83.33 14.323-169.27 21.484-257.81 21.484-89.85 0-177.09-7.1614-261.72-21.484-84.63-15.625-164.71-33.854-240.23-54.688 149.74-40.365 317.06-60.549 501.95-60.549zm-132.81 244.08h62.498c0 85.936-20.185 158.85-60.549 218.74-39.063 61.199-80.729 108.73-125 142.58-72.91 52.083-177.73 78.125-314.45 78.125-35.16 0-101.57-7.1614-199.22-21.484-82.03-13.021-147.79-22.786-197.27-29.297-49.479-5.2084-82.682-9.7656-99.609-13.672-49.48-6.5107-101.56-5.2084-156.25 3.9062-20.833 5.2085-44.27 9.7657-70.311 13.672-24.739 5.208-44.922 15.625-60.547 31.25l-93.75-152.34c52.08-27.344 108.07-46.224 167.97-56.641 98.96-16.927 185.55-20.835 259.77-11.721 20.832 2.604 49.48 9.1143 85.94 19.531s85.94 20.182 148.44 29.297c130.2 20.833 199.87 31.25 208.98 31.25 49.479 0 93.098-6.5103 130.86-19.531 37.763-13.021 72.27-27.344 103.52-42.969 66.4-29.95 136.06-103.51 208.98-220.7zm201.17 0 62.504 0.01c71.61 115.88 141.93 189.45 210.94 220.7 29.946 15.625 63.8 29.948 101.56 42.969 37.759 13.021 82.028 19.531 132.81 19.531 7.81 0 77.471-10.417 208.98-31.25 61.197-9.115 109.37-18.88 144.53-29.297 36.459-10.416 65.758-16.927 87.893-19.531 74.22-9.115 160.81-5.2082 259.77 11.719 59.89 10.417 116.54 29.297 169.92 56.641l-93.75 152.34c-16.927-15.625-38.412-26.042-64.453-31.25-24.739-3.9063-47.526-8.4635-68.359-13.672-54.69-9.1146-106.77-10.417-156.25-3.9063-16.927 3.9063-50.13 8.4636-99.609 13.672-49.48 6.511-114.58 16.276-195.31 29.297-98.96 14.323-165.37 21.484-199.22 21.484-138.02 0-242.84-26.042-314.45-78.125-45.575-33.86-88.545-81.382-128.91-142.58-39.063-59.89-58.594-132.81-58.594-218.75z" fill="#900"/>

      <g fill="#fff">
        <path d="m5130.1 1958.7c-13.6-1.1333-27.767 4.2504-42.5 16.15-62.325 44.2-95.758 103.7-100.29 178.5 1.133 38.533 21.533 55.531 61.199 50.998 36.266-3.399 53.832-23.798 52.699-61.197 6.799-33.999 26.632-61.198 59.498-81.598l-0.01-0.01c30.6-22.667 33.433-49.3 8.5-79.898-12.466-14.166-25.498-21.816-39.098-22.949z"/>
        <path d="m5325.2 2404.3c4.3081-9.6934 11.309-24.233 21.003-43.62 18.31-45.236 27.465-72.162 27.465-80.778-2.1541-30.158-17.771-45.236-46.852-45.236-21.541 0-46.852 30.697-75.932 92.089-4.3081 8.6164-10.771 16.156-19.387 22.618-29.08 30.158-24.772 55.468 12.924 75.932 34.466 20.464 61.392 13.463 80.779-21.003zm953.15-599.38c75.394-99.09 112.55-209.49 111.48-331.19-4.3082-35.542-24.772-53.314-61.392-53.314-49.544 0-68.931 18.31-58.16 54.929 3.2313 59.237-2.6924 108.24-17.771 147.01-24.772 61.393-52.237 107.17-82.394 137.33-16.156 32.312-6.4625 56.007 29.08 71.086 34.466 16.156 60.853 7.5393 79.163-25.849zm-421.67-788.4c-5.3852-38.774-4.3081-80.778 3.2311-126.01-64.624 12.925-125.48 43.084-182.56 90.476-34.466 18.31-42.543 43.62-24.234 75.932 18.31 33.389 43.62 38.774 75.932 16.156 22.618-11.847 43.082-22.618 61.392-32.311 19.387-10.77 41.466-18.848 66.238-24.234zm1513.8 1550.6c-1.0771 0 6.0211-7.0863 7.2457-26.308 0.7374-13.279 1.3796-28.942 0.8322-59.573 1.077-134.63 1.077-23.571 0-166.82-1.077-144.33-20.464-232.11-58.16-375.35-36.62-137.86-77.008-255.26-121.16-352.19-44.159-98.009-92.088-182.56-143.79-253.64-77.545-116.32-183.09-214.87-316.65-295.65-133.56-80.776-273.03-133.55-418.43-158.33 4.3082 24.772 5.3852 50.083 3.2312 75.932-1.0771 25.849-0.5386 50.621 1.6154 74.316 104.47 35.543 203.02 79.702 295.65 132.48 92.627 52.775 160.48 109.86 203.56 171.25 51.698 71.087 99.628 155.64 143.79 253.64 44.159 96.934 84.547 214.33 121.16 352.19 36.62 143.25 55.468 231.03 56.545 375.35 1.0771 143.25 1.6156 92.19 1.6156 226.82 0 67.856-1.6155 130.86-4.8467 189.03-3.2312 59.237-2.1668 91.252 0 88.855z" stroke-width=".82717"/>
        <path d="m7050.5 2855.3-82.031-199.22c-132.81-28.646-278.65-42.969-437.5-42.969-157.55 0-302.08 14.323-433.59 42.969l-82.031 197.27c161.46-40.365 333.33-60.547 515.62-60.547 179.69 0 352.86 20.833 519.53 62.5zm-164.06-402.34-56.641-136.72v-52.734c-98.96-14.323-198.57-21.484-298.83-21.484-97.653 0-196.61 7.1613-296.88 21.484l-1.9531 52.734-52.734 136.72c110.68-19.531 227.87-29.297 351.56-29.297 125 0 243.49 9.7657 355.47 29.297zm-68.359 738.28c-52.083-39.063-104.17-100.91-156.25-185.55h-62.5c0 63.802 14.974 125.65 44.922 185.55zm-402.34 0c29.948-63.802 44.922-125.65 44.922-185.55h-62.5c-50.781 83.333-103.51 145.18-158.2 185.55z"/>
      </g>
    </g>
  </g>
</svg>
