<?xml version="1.0" encoding="UTF-8"?>
<svg version="1.1" viewBox="0 0 4096 4096" xmlns="http://www.w3.org/2000/svg">
  <title>Ogi Sente Promoted Knight</title>
  <polygon points="2048 479 3231 1034 3570 3964 526 3964 865 1034" fill="#fff" stroke="#000" stroke-linejoin="round" stroke-width="148"/>
  <path d="m1304.9 2795.2q5.5664-12.524 18.091-37.573 23.657-58.447 23.657-69.58-2.7832-38.965-40.356-38.965-27.832 0-65.405 79.321-5.5664 11.133-16.699 19.482-37.573 38.965 11.133 65.405 44.531 26.44 69.58-18.091zm821.04-516.28q97.412-128.03 96.02-285.28-5.5664-45.923-52.881-45.923-64.014 0-50.098 47.314 4.1748 76.538-15.308 126.64-32.007 79.321-70.972 118.29-20.874 41.748 25.049 61.23 44.531 20.874 68.188-22.266zm-363.21-679.1q-6.958-50.098 2.7832-108.54-83.496 16.699-157.25 77.93-44.531 23.657-20.874 65.405 23.657 43.14 65.405 13.916 29.224-15.308 52.881-27.832 25.049-13.916 57.056-20.874zm1303.9 1764.6q-1.3916 0 2.7832-76.538 4.1749-75.146 4.1749-162.82 1.3916-173.95 0-359.03-1.3916-186.47-50.098-371.56-47.314-178.12-104.37-303.37-57.056-126.64-123.85-218.48-100.2-150.29-272.75-254.66-172.56-104.37-360.42-136.38 5.5664 32.007 2.7832 65.405-1.3916 33.398 1.3916 64.014 134.99 45.923 254.66 114.11 119.68 68.188 175.34 147.51 66.797 91.846 123.85 218.48 57.056 125.24 104.37 303.37 47.314 185.08 48.706 371.56 1.3916 185.08 1.3916 359.03 0 87.671-4.1748 162.82-4.1748 76.538 0 76.538zm-942.11-1980.2q218.48 13.916 404.96 112.72 186.47 98.804 317.29 253.27 91.846 108.54 172.56 261.62 82.104 153.08 130.81 324.24 55.664 199 69.58 418.87 15.308 218.48 15.308 404.96v303.37t-217.09 0q-215.7 0-560.82 0h-933.76q-12.524 0-12.524-68.188 1.3916-68.188 9.7412-109.94 5.5664-33.398 26.44-94.629 20.874-61.23 69.58-148.9 22.266-44.531 105.76-129.42 83.496-86.279 192.04-199 62.622-64.014 97.412-161.43 36.182-97.412 30.615-176.73-51.489 41.748-112.72 68.188-295.02 105.76-427.22 306.15-9.7412 12.524-62.622 112.72-27.832 52.881-47.314 72.363-26.44 26.44-76.538 29.224-77.93 4.1748-121.07-75.146-58.447 16.699-104.37 13.916-77.93-29.224-112.72-62.622-70.972-70.972-93.237-141.94-20.874-70.972-20.874-153.08 0-116.89 144.73-308.94 169.78-221.26 180.91-336.77 0-50.098 9.7412-112.72 8.3497-43.14 34.79-83.496 18.091-27.832 23.657-37.573 6.958-11.133 23.657-32.007 12.524-16.699 20.874-25.049 8.3496-9.7413 20.874-25.049 15.308-18.091 38.965-41.748-73.755-203.17-59.839-418.87 276.93 98.804 464.79 310.33 45.923-157.25 180.91-254.66 111.33 77.93 176.73 205.96zm-939.33 1163.4q40.356-27.832 8.3496-66.797-33.398-32.007-73.755-5.5664-84.888 55.664-90.454 146.12 1.3916 45.923 54.272 43.14 50.098-4.1748 48.706-51.489 11.133-44.531 52.881-65.405zm350.68-693.02q30.615-15.308 30.615-15.308 41.748-16.699 26.44-61.23-16.699-41.748-64.014-27.832-164.21 59.839-226.83 219.87-9.7412 45.923 33.398 62.622 43.14 13.916 58.447-30.615 11.133-23.657 16.699-30.615 15.308 12.524 40.356 16.699 84.888 13.916 98.804-75.146 4.1748-30.615-13.916-58.447z" dominant-baseline="central" fill="#900" aria-label="♞"/>
</svg>
