<?xml version="1.0" encoding="UTF-8"?>
<svg version="1.1" viewBox="0 0 4096 4096" xmlns="http://www.w3.org/2000/svg">
  <title>Ogi Sente Promoted Bishop</title>
  <polygon points="2048 249 3309 841 3670 3964 426 3964 787 841" fill="#fff" stroke="#000" stroke-linejoin="round" stroke-width="148"/>
  <path d="m2441.7 2988.8-62.159-150.96q-150.96-32.56-331.52-32.56-179.08 0-328.56 32.56l-62.159 149.48q183.52-45.879 390.71-45.879 204.24 0 393.67 47.359zm-124.32-304.88-42.919-103.6v-39.959q-112.48-16.28-226.44-16.28-111 0-224.96 16.28l-1.48 39.959-39.96 103.6q125.8-22.2 266.4-22.2 142.08 0 269.36 22.2zm-51.799 559.43q-59.199-44.399-118.4-140.6h-47.359q0 72.519 34.04 140.6zm-304.88 0q34.04-72.519 34.04-140.6h-47.359q-57.719 94.719-119.88 140.6zm87.319 26.64q-20.72 84.359-50.319 116.92t-78.439 68.079q-53.279 37-125.8 62.159-72.519 26.64-161.32 13.32l-415.87-57.719q-25.16-2.96-45.879 0-19.24 2.9599-37 2.9599-31.08 0-79.919 13.32-47.359 14.8-73.999 41.44l-143.56-235.32q26.64-29.6 47.359-41.439 20.72-11.84 48.839-25.16 85.839-39.96 183.52-48.839 41.44-2.9599 81.399-1.48 39.96 1.48 82.879-2.9599 79.919 13.32 159.84 25.16 81.399 10.36 162.8 22.2 88.799 0 119.88-17.76 16.28-8.8799 51.799-32.56t71.039-69.559q-78.439-8.8798-159.84-29.6-81.399-22.2-143.56-45.879l153.92-381.83q-115.44-66.599-161.32-106.56-45.879-41.44-72.519-94.719-38.48-68.079-50.319-131.72-10.36-63.639-8.8799-113.96 1.48-88.799 41.44-195.36 41.439-108.04 153.92-192.4 93.239-71.039 182.04-146.52 88.799-75.479 176.12-176.12-109.52-56.239-109.52-179.08 0-82.879 57.719-142.08 59.199-59.199 143.56-59.199 82.879 0 142.08 59.199t59.199 142.08q0 121.36-109.52 179.08 85.839 100.64 173.16 176.12 88.799 75.479 185 146.52 111 84.359 150.96 192.4 39.959 106.56 42.919 195.36 0 50.319-10.36 113.96-10.36 63.639-47.359 131.72-29.6 53.279-75.479 94.719-44.4 39.96-158.36 106.56l153.92 381.83q-65.119 23.68-146.52 45.879-81.399 20.72-156.88 29.6 34.04 45.879 69.559 69.559t53.279 32.56q31.08 17.76 119.88 17.76 79.919-11.84 159.84-22.2 81.399-11.84 162.8-25.16 39.959 4.4399 79.919 2.9599 41.44-1.4799 84.359 1.48 94.719 8.8799 183.52 48.839 26.64 13.32 47.359 25.16 22.2 11.84 48.839 41.439l-145.04 235.32q-26.64-26.64-75.479-41.44-47.359-13.32-76.959-13.32-19.24 0-39.959-2.9599-19.24-2.96-44.4 0l-414.39 57.719q-88.799 13.32-165.76-11.84-75.479-25.16-124.32-66.599-48.839-39.959-78.439-69.559-28.12-28.12-47.359-112.48zm-54.759-1101.1v125.8q0 54.759 54.759 54.759t54.759-54.759v-127.28h133.2q51.799 0 51.799-53.279t-51.799-53.279h-133.2v-133.2q0-54.759-54.759-54.759t-54.759 54.759v133.2h-130.24q-51.799 0-51.799 53.279t51.799 53.279z" dominant-baseline="central" fill="#900" aria-label="â™"/>
</svg>
