<?xml version="1.0" encoding="UTF-8"?>
<svg version="1.1" viewBox="0 0 50 50" xmlns="http://www.w3.org/2000/svg">
  <title>Promoted Silver General</title>
  <path fill="#fee" d="m6.1426 49.005h37.715l-6.3481-45.745-12.51-2.2497-12.51 2.2497-6.3475 45.745z" fill-rule="evenodd" stroke="#900" stroke-width="2"/>
  <path d="m25 15.179-1.1699 9.5417-7.5037-5.8728 5.8416 7.4863-9.4704 1.1636 10.957 1.3455 1.3457 10.973 1.3438-10.971 10.959-1.3474-9.4704-1.1636 5.8416-7.4863-7.5057 5.8728z" fill-opacity="0" stroke="#900" stroke-width="1.2558"/>
  <g fill="#fff" fill-rule="evenodd" stroke="#900" stroke-linecap="round" stroke-linejoin="round" stroke-width="1.2558">
    <path d="m12.87 29.224a1.723 1.7254 0 0 0 0-3.4507 1.723 1.7254 0 1 0 0 3.4507z"/>
    <path d="m37.13 29.224a1.723 1.7254 0 0 1 0-3.4507 1.723 1.7254 0 1 1 0 3.4507z"/>
    <path d="m23.277 15.353a1.723 1.7255 0 0 0 3.4461 0 1.723 1.7255 0 1 0-3.4461 0z"/>
    <path d="m23.277 39.644a1.723 1.7255 0 0 1 3.4461 0 1.723 1.7255 0 1 1-3.4461 0z"/>
    <path d="m15.23 20.192a1.723 1.7253 0 0 0 2.4367-2.44 1.723 1.7253 0 1 0-2.4367 2.44z"/>
    <path d="m34.77 20.192a1.723 1.7253 0 0 1-2.4367-2.44 1.723 1.7253 0 1 1 2.4367 2.44z"/>
  </g>
</svg>
