<?xml version="1.0" encoding="UTF-8"?>
<svg version="1.1" viewBox="0 0 4096 4096" xmlns="http://www.w3.org/2000/svg">
  <title>Ogi Sente Rook</title>
  <polygon points="2048 249 3309 841 3670 3964 426 3964 787 841" fill="#fff" stroke="#000" stroke-linejoin="round" stroke-width="148"/>
  <path d="m2250.8 1325.3h251.6v-202.76h405.51v554.99l-328.56 253.08v707.43l251.6 251.6v303.4h226.44v353.72h-2020.2v-353.72h226.44v-303.4l253.08-251.6v-707.43l-328.56-253.08v-554.99h404.03v202.76h253.08v-202.76h405.51zm707.43 1968.4h-1820.4v152.44h1820.4zm-229.4-301.92h-1361.6v201.28h1361.6zm-251.6-1061.1h-858.39v707.43h858.39zm328.56-353.72v-353.72h-202.76v202.76h-455.83v-202.76h-199.8v202.76h-454.35v-202.76h-202.76v353.72zm-113.96 1312.7-152.44-150.96h-981.23l-155.4 150.96zm-162.8-1059.7 187.96-152.44h-1337.9l189.44 152.44z" dominant-baseline="central" aria-label="♖"/>
</svg>
