<?xml version="1.0" encoding="UTF-8"?>
<svg version="1.1" viewBox="0 0 50 50" xmlns="http://www.w3.org/2000/svg">
  <title>角</title>
  <path d="m6.1426 49.005h37.715l-6.3481-45.745-12.51-2.2497-12.51 2.2497-6.3475 45.745z" fill="#fff" fill-rule="evenodd" stroke="#000" stroke-width="2"/>
  <g aria-label="角">
    <path d="m27.653 32.88v-4.0801h5.2267v4.0801zm-7.2001-4.0801h4.8267v4.0801h-5.1201c0.24-1.28 0.29334-2.56 0.29334-3.76zm7.0668-8.9334c-0.45334 1.0667-1.1467 2.4534-1.7867 3.4134h-4.8534l-1.44-0.56001c1.04-0.90668 2-1.8667 2.8534-2.8534zm-7.0668 4.1867h4.8267v3.9734h-4.8267zm12.427 0v3.9734h-5.2267v-3.9734zm0.88001-2.1334-1.1467 1.36h-6.1601c1.4134-0.88001 2.9334-2.16 3.9467-3.0934 0.56001-0.02667 0.85334-0.08 1.0667-0.29334l-2.5067-2.2134-1.44 1.4134h-4.5867c0.45334-0.58667 0.88001-1.1467 1.2533-1.7334 0.72001 0.08 0.93334-0.05333 1.04-0.32l-3.68-1.04c-1.4667 3.6-4.6134 7.6801-7.7868 9.9201l0.26667 0.29334c1.36-0.61334 2.6934-1.4134 3.9467-2.32v5.2534c0 4.1334-0.58667 8.1601-4.3734 11.307l0.26667 0.29334c3.7867-1.8667 5.4401-4.4267 6.1067-7.0934h12.907v3.5734c0 0.42667-0.16 0.61334-0.69334 0.61334-0.66668 0-4.0801-0.24-4.0801-0.24v0.4c1.52 0.21334 2.24 0.53334 2.7467 0.93334 0.45334 0.4 0.64001 1.0133 0.77334 1.84 3.36-0.32 3.7867-1.4134 3.7867-3.2267v-13.12c0.48001-0.10667 0.82668-0.32 0.98668-0.50667z"/>
  </g>
</svg>
