<?xml version="1.0" encoding="UTF-8"?>
<svg version="1.1" viewBox="0 0 50 50" xmlns="http://www.w3.org/2000/svg">
  <title>王</title>
  <path d="m6.1426 49.005h37.715l-6.3481-45.745-12.51-2.2497-12.51 2.2497-6.3475 45.745z" fill="#fff" fill-rule="evenodd" stroke="#000" stroke-width="2"/>
  <g aria-label="王">
    <path d="m32.453 38.294h-6.1867v-9.9468h8.0534c0.37334 0 0.66668-0.13334 0.72001-0.42667-1.12-1.0133-2.9067-2.4-2.9067-2.4l-1.6534 2.0534h-4.2134v-8.7201h9.0134c0.37334 0 0.66668-0.13334 0.72001-0.42667-1.1467-1.0133-3.04-2.4267-3.04-2.4267l-1.68 2.08h-17.387l0.21334 0.77334h9.4134v8.7201h-8.5601l0.21334 0.77334h8.3468v9.9468h-10.747l0.24 0.77334h23.467c0.4 0 0.66668-0.13334 0.74668-0.42667-1.1733-1.04-3.0934-2.5067-3.0934-2.5067z"/>
  </g>
</svg>
