<?xml version="1.0" encoding="UTF-8"?>
<svg version="1.1" viewBox="0 0 50 50" xmlns="http://www.w3.org/2000/svg">
  <title>龍</title>
  <path d="m6.1426 49.005h37.715l-6.3481-45.745-12.51-2.2497-12.51 2.2497-6.3475 45.745z" fill="#fff" fill-rule="evenodd" stroke="#900" stroke-width="2"/>
  <g fill="#900" aria-label="龍">
    <path d="m16.64 33.654v-2.56h4.5601v2.56zm4.5601-5.6801v2.3467h-4.5601v-2.3467zm-0.24-0.77334h-4.1867l-2.48-1.0667v14.614h0.37334c1.0133 0 1.9734-0.53334 1.9734-0.80001v-5.5201h4.5601v3.3334c0 0.32-0.08 0.48001-0.45334 0.48001-0.50667 0-2.2667-0.13334-2.2667-0.13334v0.37334c0.98668 0.16 1.3867 0.42667 1.7067 0.77334 0.26667 0.32 0.37334 0.88001 0.4 1.5467 2.6934-0.24 3.0667-1.1467 3.0667-2.8267v-9.5468c0.53334-0.10667 0.96001-0.34667 1.12-0.53334l-2.6934-2.0267zm1.2-2.8267h-1.8934c0.93334-1.04 1.8667-2.32 2.5067-3.2267 0.58667 0.02667 0.90668-0.21334 1.0133-0.53334l-2.72-0.72001h3.68c0.34667 0 0.58667-0.13334 0.66668-0.42667-0.88001-0.88001-2.4-2.08-2.4-2.08l-1.36 1.76h-1.7334v-2.1067c0.61334-0.13334 0.82668-0.34667 0.88001-0.69334l-3.3067-0.29334v3.0934h-4.6667l0.21334 0.74668h7.6001c-0.24 1.3334-0.66668 3.1734-1.04 4.4801h-7.0934l0.21334 0.77334h12.453c0.37334 0 0.64001-0.13334 0.72001-0.42667-0.90668-0.88001-2.4-2.1067-2.4-2.1067zm-7.0934-4.2934c0.50667 0.98668 1.0133 2.4534 0.90668 3.68 1.7067 1.7334 4.1601-1.76-0.58667-3.8134zm21.334 15.76h-0.26667c-0.32 0.93334-0.66668 1.8134-0.90668 2.08-0.16 0.16-0.37334 0.21334-0.66668 0.24-0.4 0.02667-1.3067 0.02667-2.32 0.02667h-2.5867c-0.96001 0-1.12-0.16-1.12-0.64001v-1.8667h7.3334c0.37334 0 0.61334-0.13334 0.66668-0.42667-0.85334-0.80001-2.2934-1.8667-2.2934-1.8667l-1.2533 1.52h-4.4534v-2.16h6.6934c0.34667 0 0.61334-0.13334 0.69334-0.42667-0.85334-0.77334-2.24-1.7867-2.24-1.7867l-1.1733 1.44h-3.9734v-2.1067h6.9068c0.37334 0 0.64001-0.13334 0.69334-0.42667-0.85334-0.77334-2.2934-1.8134-2.2934-1.8134l-1.2267 1.4667h-4.0801v-2.2934h4.6667v0.69334h0.4c0.72001 0 1.9467-0.4 1.9734-0.56001v-3.28c0.53334-0.10667 0.90668-0.34667 1.0933-0.56001l-2.56-1.8667-1.1733 1.2267h-4.3467v-2.1334h7.7068c0.34667 0 0.64001-0.13334 0.69334-0.42667-0.96001-0.96001-2.64-2.2667-2.64-2.2667l-1.44 1.92h-4.3201v-2.48c0.69334-0.10667 0.90668-0.37334 0.96001-0.74668l-3.44-0.32001v8.5868h0.4c0.98668 0 2.08-0.45334 2.08-0.69334v-0.66668h4.6134v2.8h-4.3467l-2.7467-1.0667v13.173c0 1.84 0.58667 2.32 3.04 2.32h2.88c4.3734 0 5.4667-0.42667 5.4667-1.4934 0-0.48001-0.21334-0.74668-0.98668-1.0133z"/>
  </g>
</svg>
