<?xml version="1.0" encoding="UTF-8"?>
<svg version="1.1" viewBox="0 0 50 50" xmlns="http://www.w3.org/2000/svg">
  <title>圭</title>
  <path d="m6.1426 49.005h37.715l-6.3481-45.745-12.51-2.2497-12.51 2.2497-6.3475 45.745z" fill="#fff" fill-rule="evenodd" stroke="#900" stroke-width="2"/>
  <g fill="#900" aria-label="圭">
    <path d="m13.36 26.48 0.21334 0.77334h22.507c0.34667 0 0.61334-0.13334 0.69334-0.42667-1.0133-0.93334-2.7467-2.24-2.7467-2.24l-1.4934 1.8934h-6.2934v-5.2267h8.1868c0.37334 0 0.66668-0.13334 0.72001-0.42667-1.0133-0.96001-2.6667-2.24-2.6667-2.24l-1.4667 1.8934h-4.7734v-3.4134c0.69334-0.10667 0.93334-0.37334 0.98668-0.74668l-3.6-0.32v4.4801h-8.2401l0.21334 0.77334h8.0268v5.2267zm19.627 12.64h-6.7468v-5.9467h8.8001c0.37334 0 0.64001-0.13334 0.72001-0.42667-1.04-0.90668-2.7467-2.24-2.7467-2.24l-1.4934 1.92h-5.2801v-3.4667c0.69334-0.10667 0.93334-0.37334 0.98668-0.74668l-3.6-0.32v4.5334h-8.8001l0.21334 0.74668h8.5868v5.9467h-10.987l0.24 0.77334h23.76c0.37334 0 0.66668-0.13334 0.72001-0.42667-1.04-0.98668-2.8-2.3467-2.8-2.3467z"/>
  </g>
</svg>
