<?xml version="1.0" encoding="UTF-8"?>
<svg version="1.1" viewBox="0 0 50 50" xmlns="http://www.w3.org/2000/svg">
  <title>杏</title>
  <path d="m6.1426 49.005h37.715l-6.3481-45.745-12.51-2.2497-12.51 2.2497-6.3475 45.745z" fill="#fff" fill-rule="evenodd" stroke="#900" stroke-width="2"/>
  <g fill="#900" aria-label="杏">
    <path d="m20.067 37.974v-6.2134h10.133v6.2134zm9.8668-6.9868h-9.7068l-2.6934-1.12v10.96h0.37334c1.0667 0 2.16-0.56001 2.16-0.80001v-1.28h10.133v1.9467h0.42667c0.82668 0 2.08-0.50667 2.1067-0.69334v-7.8668c0.48001-0.08 0.85334-0.32 0.98668-0.50667l-2.56-1.9734zm6.3467-9.5468c0.4 0 0.66668-0.13334 0.74668-0.42667-1.04-0.96001-2.7734-2.2934-2.7734-2.2934l-1.52 1.9467h-6.5867v-3.5734c0.69334-0.10667 0.90668-0.37334 0.98668-0.74668l-3.52-0.34667v4.6667h-10.667l0.21334 0.77334h8.6934c-1.9467 3.4667-5.3067 6.8534-9.4401 9.0134l0.24 0.37334c4.6134-1.6534 8.4001-4.1601 10.96-7.3334v6.4001h0.45334c0.96001 0 2.08-0.50667 2.08-0.74668v-7.7068h0.02667c1.8934 3.9734 5.4134 6.9068 9.2534 8.7734 0.34667-1.2267 1.0667-2.0534 2.1067-2.24l0.05333-0.29334c-3.8667-1.0933-8.4001-3.28-10.747-6.2401z"/>
  </g>
</svg>
