<?xml version="1.0" encoding="UTF-8"?>
<svg version="1.1" viewBox="0 0 50 50" xmlns="http://www.w3.org/2000/svg">
  <title>馬</title>
  <path d="m6.1426 49.005h37.715l-6.3481-45.745-12.51-2.2497-12.51 2.2497-6.3475 45.745z" fill="#fff" fill-rule="evenodd" stroke="#900" stroke-width="2"/>
  <g fill="#900" aria-label="馬">
    <path d="m15.921 32.294c0.08 1.8667-1.04 3.4934-2.16 4.1067-0.69334 0.37334-1.2267 1.0667-0.93334 1.8934 0.34667 0.88001 1.4934 0.98668 2.3467 0.45334 1.28-0.80001 2.3467-3.0934 1.1467-6.4801zm3.2267 0.10667c0.37334 1.4667 0.56001 3.5467 0.21334 5.2267 1.7067 2.2134 4.5067-1.7067 0.13334-5.3067zm3.68-0.10667c0.82668 1.2 1.6534 3.0934 1.68 4.6401 1.9734 1.84 4.2401-2.4-1.3867-4.8001zm-3.7067-5.7601h5.0667v3.2h-5.0667zm5.0667-7.8934v3.2h-5.0667v-3.2zm0 7.1201h-5.0667v-3.1467h5.0667zm10.64 2.6667-1.3867 1.3067h-6.7468v-3.2h7.2001c0.37334 0 0.64001-0.13334 0.72001-0.42667-1.04-0.90668-2.6934-2.1334-2.6934-2.1334l-1.4667 1.7867h-3.76v-3.1467h7.1468c0.4 0 0.66668-0.13334 0.74668-0.42667-1.04-0.90668-2.6667-2.1334-2.6667-2.1334l-1.4667 1.7867h-3.76v-3.2h7.8401c0.37334 0 0.66668-0.13334 0.74668-0.42667-1.0667-0.93334-2.8-2.2134-2.8-2.2134l-1.5467 1.8667h-11.467l-2.88-1.12v15.2h0.42667c1.28 0 2.1067-0.61334 2.1067-0.80001v-0.64001h14.56c-0.34667 3.84-1.0133 6.4267-1.7334 7.0134-0.26667 0.21334-0.50667 0.26667-0.98668 0.26667-0.58667 0-2.5067-0.16-3.68-0.26667v0.4c1.0933 0.21334 2.1067 0.53334 2.5334 0.90668 0.45334 0.37334 0.56001 0.90668 0.56001 1.5734 1.4134 0 2.4267-0.24 3.28-0.82668 1.3334-1.0133 2.16-3.92 2.56-8.6668 0.53334-0.08 0.85334-0.24 1.04-0.45334zm-8.1068 3.4134c1.12 0.85334 2.3734 2.4 2.7467 3.7334 2.1867 1.28 3.6267-3.0934-2.48-3.92z"/>
  </g>
</svg>
