<?xml version="1.0" encoding="UTF-8"?>
<svg version="1.1" viewBox="0 0 50 50" xmlns="http://www.w3.org/2000/svg">
  <title>神</title>
  <path d="m6.1428 49.005h37.715l-6.3481-45.745-12.51-2.2497-12.51 2.2497-6.3475 45.745z" fill="#fff" fill-rule="evenodd" stroke="#900" stroke-width="2"/>
  <g fill="#900" aria-label="神">
    <path d="m28.587 26.72v4.7734h-3.0934v-4.7734zm2.5067 0h3.2v4.7734h-3.2zm-2.5067-0.77334h-3.0934v-4.4801h3.0934zm2.5067 0v-4.4801h3.2v4.4801zm-18-4.7467 0.24 0.74668h6.1601c-1.3334 3.2534-4.2401 7.3068-7.1468 9.8668l0.26667 0.26667c1.4134-0.82668 2.8-1.8667 4.1067-3.0134v11.6h0.45334c1.2 0 2.0267-0.61334 2.0267-0.80001v-12.613c0.74668 0.90668 1.4667 2.08 1.7067 3.0934 1.92 1.4134 3.6267-2.24-1.6-3.8667 1.1733-1.3334 2.16-2.6934 2.88-4 0.45334-0.02667 0.77334-0.10667 0.98668-0.21334v12.24h0.34667c1.0133 0 1.9734-0.53334 1.9734-0.80001v-1.44h3.0934v8.3468h0.48001c0.93334 0 2.0267-0.61334 2.0267-0.93334v-7.4134h3.2v1.8934h0.4c0.80001 0 1.9734-0.53334 2-0.72001v-11.653c0.48001-0.08 0.82668-0.29334 0.96001-0.45334l-2.4267-1.8934-1.1733 1.28h-2.96v-3.6c0.69334-0.10667 0.88001-0.37334 0.96001-0.74668l-3.4667-0.34667v4.6934h-2.9334l-2.48-1.0667v2.2667l-2-2.1334-1.4667 1.4134h-0.58667v-4.2134c0.69334-0.08 0.93334-0.34667 0.98668-0.72001l-3.36-0.29334v5.2267z"/>
  </g>
</svg>
