<?xml version="1.0" encoding="UTF-8"?>
<svg version="1.1" viewBox="0 0 50 50" xmlns="http://www.w3.org/2000/svg">
  <title>Promoted Pawn</title>
  <path d="m6.1426 49.005h37.715l-6.3481-45.745-12.51-2.2497-12.51 2.2497-6.3475 45.745z" fill="#fff" fill-rule="evenodd" stroke="#900" stroke-width="2"/>
  <path d="m25 13.68c-2.0028 0-3.6249 1.6222-3.6249 3.6249 0 0.80653 0.26281 1.5497 0.70689 2.1569-1.7672 1.015-2.9724 2.909-2.9724 5.093 0 1.8397 0.85189 3.4799 2.184 4.5584-2.719 0.96104-6.7157 5.0297-6.7157 12.207h20.844c0-7.1774-3.9965-11.247-6.7151-12.207 1.3322-1.0784 2.184-2.7187 2.184-4.5584 0-2.184-1.2053-4.078-2.9724-5.093 0.44369-0.60725 0.70643-1.3505 0.70643-2.157 0-2.0028-1.6222-3.6249-3.6249-3.6249z" fill="#fff" stroke="#900" stroke-linecap="round" stroke-width="1.3594"/>
</svg>
